<?xml version="1.0" standalone="no"?>
<!DOCTYPE svg PUBLIC "-//W3C//DTD SVG 1.1//EN" "http://www.w3.org/Graphics/SVG/1.1/DTD/svg11.dtd" >
<svg xmlns="http://www.w3.org/2000/svg">
<metadata></metadata>
<defs>
<font id="kirstyregular" horiz-adv-x="909" >
<font-face units-per-em="2048" ascent="1579" descent="-469" />
<missing-glyph horiz-adv-x="450" />
<glyph horiz-adv-x="0" />
<glyph unicode="&#xd;" horiz-adv-x="1159" />
<glyph unicode=" "  horiz-adv-x="450" />
<glyph unicode="&#x09;" horiz-adv-x="450" />
<glyph unicode="&#xa0;" horiz-adv-x="450" />
<glyph unicode="!" horiz-adv-x="546" d="M442 47l-43 -47h-260l-45 45v229l53 50h252l43 -43v-234zM403 1622l68 -137v-279l-117 -743h-161l-117 743v279l69 137h258z" />
<glyph unicode="&#x22;" horiz-adv-x="643" d="M508 1622l67 -137v-70l-94 -487h-45l-92 487v70l70 137h94zM229 1622l68 -137v-70l-92 -487h-47l-92 487v70l69 137h94z" />
<glyph unicode="#" horiz-adv-x="1724" d="M1407 1423l-23 54h-153l-27 -54v-368l27 -51h153l23 51v368zM979 739h666v-145h-666v145zM1057 858l-72 146v473l72 145h495l78 -143v-475l-78 -146h-495zM889 1622l-78 -145v-883h-160l-354 616l18 -92v-379l74 -145h-311l74 145v738l-74 145h237l344 -608l-8 88v375 l-71 145h309z" />
<glyph unicode="$" horiz-adv-x="1101" d="M602 596v-272h115l43 84v71l-39 78zM383 1067l145 -51v282h-141l-43 -84v-71zM528 92h-462v348l231 -116h231v297l-348 120l-114 230v327l114 232h348v92h74v-92h391v-348l-233 116h-158v-309l322 -108l114 -230v-327l-114 -232h-322v-92h-74v92z" />
<glyph unicode="%" horiz-adv-x="1802" d="M522 1307l-37 84h-149l-43 -84v-303l39 -74h157l33 74v303zM1509 612l-41 84h-145l-43 -84v-301l37 -78h156l36 78v301zM1161 0l-114 229v467l114 234h465l115 -234v-467l-115 -229h-465zM1151 1532h-467l72 -139v-467l-117 -230h-463l-117 230v465l117 231h1225 l-793 -1622h-202z" />
<glyph unicode="&#x26;" horiz-adv-x="1200" d="M457 1159l59 -102l102 102v156l-38 76h-78l-45 -84v-148zM655 371l-180 313l-65 -68v-307l47 -86h82zM637 856l176 -289l172 215l160 -166l-209 -254l221 -362h-283l-98 164l-133 -164h-465l-115 229v260l111 232l178 174l-153 264v232l116 231h441l116 -229v-234 l-57 -119z" />
<glyph unicode="'" horiz-adv-x="393" d="M279 1622l67 -137v-70l-117 -487h-69l-115 487v70l68 137h166z" />
<glyph unicode="(" horiz-adv-x="487" d="M453 -117h-140l-256 346v1162l256 348h113l-205 -432v-998z" />
<glyph unicode=")" horiz-adv-x="487" d="M33 1739h139l254 -346v-1162l-254 -348h-115l207 432v1000z" />
<glyph unicode="*" horiz-adv-x="866" d="M524 1346l324 10l-268 -180l110 -306l-256 199l-258 -199l111 306l-269 180l326 -10l90 311z" />
<glyph unicode="+" horiz-adv-x="1103" d="M18 928h418v420h232v-420h417v-232h-417v-417h-232v417h-418v232z" />
<glyph unicode="," horiz-adv-x="460" d="M410 78l-183 -277h-118l106 189v43h-109l-43 43v198l54 50h250l43 -43v-203z" />
<glyph unicode="-" d="M86 928h735v-232h-735v232z" />
<glyph unicode="." horiz-adv-x="514" d="M428 47l-43 -47h-260l-43 45v229l53 50h250l43 -43v-234z" />
<glyph unicode="/" horiz-adv-x="1011" d="M813 1739h188l-792 -1856h-203z" />
<glyph unicode="0" horiz-adv-x="1187" d="M756 1307l-41 84h-240l-43 -84v-998l39 -78h248l37 78v998zM199 0l-115 229v1162l115 231h788l117 -229v-1164l-117 -229h-788z" />
<glyph unicode="1" horiz-adv-x="741" d="M575 1622v-1391l115 -231h-579l116 231v928h-188v232l178 73l53 158h305z" />
<glyph unicode="2" horiz-adv-x="1136" d="M774 1307l-43 84h-375l-231 -115v346h811l117 -231v-281l-510 -795l-97 -84h375l232 117v-348h-975v231z" />
<glyph unicode="3" horiz-adv-x="1069" d="M600 231l39 78v303l-43 84h-250v232h254l39 76v303l-43 84h-277l-231 -115v346h784l115 -231v-465l-69 -135l69 -95v-467l-115 -229h-786v346l231 -115h283z" />
<glyph unicode="4" horiz-adv-x="1130" d="M561 696v480l-313 -480h313zM621 1622h407l-119 -231v-695h160v-233h-160v-232l115 -231h-580l117 231v232h-420l-123 252z" />
<glyph unicode="5" horiz-adv-x="1138" d="M1059 698v-467l-115 -231h-858v348l231 -117h373l45 84v303l-39 78h-495l-115 183v743h928v-346l-232 115h-413l41 -84v-303l41 -76h493z" />
<glyph unicode="6" horiz-adv-x="1247" d="M825 600l-43 96h-350v-387l39 -78h317l37 78v291zM432 928h625l117 -232v-467l-117 -229h-858l-115 229v1162l115 231h872v-346l-231 115h-365l-43 -84v-379z" />
<glyph unicode="7" horiz-adv-x="1036" d="M250 231l385 1086l63 74h-399l-229 -115v346h815l116 -231l-407 -1160l72 -231h-580z" />
<glyph unicode="8" horiz-adv-x="1210" d="M432 1001l39 -73h289l41 78v301l-43 84h-285l-41 -84v-306zM801 618l-39 78h-291l-39 -80v-307l39 -78h291l39 78v309zM1051 717l73 -137v-351l-116 -229h-809l-115 229v344l70 144l184 92l-184 102l-70 140v340l115 231h809l116 -229v-351l-65 -131l-189 -100z" />
<glyph unicode="9" horiz-adv-x="1245" d="M420 1022l43 -94h350v387l-39 76h-317l-37 -76v-293zM813 696h-625l-116 232v465l116 229h859l114 -229v-1162l-114 -231h-873v348l232 -117h364l43 84v381z" />
<glyph unicode=":" horiz-adv-x="520" d="M432 602l-45 -45h-260l-43 43v229l53 52h250l45 -43v-236zM432 47l-45 -47h-260l-43 45v229l53 50h250l45 -43v-234z" />
<glyph unicode=";" horiz-adv-x="471" d="M410 602l-43 -45h-261l-43 43v229l54 52h250l43 -43v-236zM410 78l-183 -277h-118l106 189v43h-109l-43 43v198l54 50h250l43 -43v-203z" />
<glyph unicode="&#x3c;" horiz-adv-x="890" d="M838 371h-301l-506 325v232l506 323h301l-699 -432z" />
<glyph unicode="=" horiz-adv-x="1054" d="M86 696h928v-233h-928v233zM86 1159h928v-231h-928v231z" />
<glyph unicode="&#x3e;" horiz-adv-x="890" d="M51 1251h301l506 -323v-232l-506 -325h-301l699 434z" />
<glyph unicode="?" horiz-adv-x="1028" d="M627 47l-45 -47h-260l-43 45v229l53 50h250l45 -43v-234zM418 827l246 99l38 75v306l-43 84h-374l-232 -115v346h811l117 -231v-467l-117 -232l-246 -96l-38 -82l45 -82h-324v166z" />
<glyph unicode="@" horiz-adv-x="1429" d="M604 283l21 -43h168l20 43v206h-184l-25 -51v-155zM813 813l-22 45h-193l-125 -61v186h465l61 -125v-618h152v809l-43 84h-772l-43 -84v-996l39 -80h1026l-115 -231h-1044l-115 229v1162l115 231h997l117 -229v-1018h-832l-61 123v249l61 123h332v201z" />
<glyph unicode="A" horiz-adv-x="1312" d="M471 539h279l-138 520zM809 305h-401l-19 -74l92 -231h-485l139 229l332 1151l-94 242h440l365 -1391l139 -231h-580l92 231z" />
<glyph unicode="B" horiz-adv-x="1310" d="M537 973h327l41 80v254l-43 84h-366l41 -84v-334zM905 666l-39 75h-329v-432l-35 -78h364l39 78v357zM1155 762l74 -135v-398l-117 -229h-1040l116 229v1162l-116 231h1040l117 -229v-303l-66 -132l-190 -100z" />
<glyph unicode="C" horiz-adv-x="1091" d="M1008 346v-346h-811l-115 229v1162l115 231h786v-346l-231 115h-279l-45 -84v-998l41 -78h307z" />
<glyph unicode="D" horiz-adv-x="1361" d="M930 1307l-41 84h-393l41 -84v-998l-35 -78h391l37 78v998zM72 0l116 229v1162l-116 231h1089l117 -229v-1164l-117 -229h-1089z" />
<glyph unicode="E" horiz-adv-x="1169" d="M1112 1622v-346l-231 115h-379l30 -68v-350h117l232 117v-463l-232 114h-117v-448l-26 -62h375l231 117v-348h-1042l116 231v1160l-116 231h1042z" />
<glyph unicode="F" horiz-adv-x="1142" d="M1112 1622v-346l-231 115h-383l34 -76v-342h117l232 117v-463l-232 114h-117v-510l117 -231h-579l116 231v1160l-116 231h1042z" />
<glyph unicode="G" horiz-adv-x="1216" d="M1151 809l-117 -231v-347l117 -231h-952l-115 229v1162l115 231h858v-346l-232 115h-350l-43 -84v-998l39 -78h317l-32 72v272l-117 234h512z" />
<glyph unicode="H" horiz-adv-x="1492" d="M1421 1622l-118 -231v-1160l116 -231h-557l117 231v510h-465v-510l117 -231h-557l116 231v1160l-116 231h559l-119 -231v-418h465v418l-117 231h559z" />
<glyph unicode="I" horiz-adv-x="698" d="M639 1622l-117 -231v-1160l115 -231h-580l117 231v1160l-117 231h582z" />
<glyph unicode="J" horiz-adv-x="1038" d="M264 231h215l41 78v1084l-117 229h580l-117 -225v-1168l-114 -229h-719v346z" />
<glyph unicode="K" horiz-adv-x="1449" d="M655 1622l-116 -231v-439l366 670h430l-262 -231l-211 -379l381 -781l207 -231h-606l37 231l-342 619v-619l114 -231h-579l116 231v1160l-116 231h581z" />
<glyph unicode="L" horiz-adv-x="1095" d="M651 1622l-119 -231v-1098l-26 -62h330l231 117v-348h-997l116 231v1160l-116 231h581z" />
<glyph unicode="M" horiz-adv-x="1681" d="M1608 1622l-119 -231v-1160l115 -231h-486l115 231v717l18 211l-299 -1159h-231l-299 1208l22 -225v-752l117 -231h-487l116 231v1160l-116 231h604l172 -709l35 -208l35 200l198 717h490z" />
<glyph unicode="N" horiz-adv-x="1415" d="M1350 1622l-119 -231v-1391h-254l-559 969l24 -142v-596l117 -231h-487l116 231v1160l-116 231h372l543 -963l-10 144v588l-117 231h490z" />
<glyph unicode="O" horiz-adv-x="1257" d="M825 1307l-41 84h-309l-43 -84v-998l39 -78h317l37 78v998zM199 0l-115 229v1162l115 231h858l117 -229v-1164l-117 -229h-858z" />
<glyph unicode="P" horiz-adv-x="1288" d="M524 881h367l39 80v346l-41 84h-404l39 -84v-426zM1139 649h-615v-418l115 -231h-567l116 229v1162l-116 231h1067l114 -229v-512z" />
<glyph unicode="Q" horiz-adv-x="1224" d="M801 1307l-43 84h-307l-45 -84v-998l38 -78h318l39 78v998zM848 0l170 -147l-148 -177l-295 258l56 66h-457l-117 229v1162l117 231h858l115 -229v-1164l-115 -229h-184z" />
<glyph unicode="R" horiz-adv-x="1456" d="M537 881h354l39 80v346l-41 84h-393l41 -84v-426zM930 573l-37 76h-356v-649h-465l116 229v1162l-116 231h1089l117 -229v-396l-66 -133l-190 -98l182 -96l74 -138v-303l115 -229h-346l-117 227v346z" />
<glyph unicode="S" horiz-adv-x="1130" d="M1055 698v-467l-117 -231h-856v348l231 -117h420l43 84v211l-39 76l-540 186l-115 230v373l115 231h811v-346l-232 115h-373l-45 -84v-117l41 -78l539 -184z" />
<glyph unicode="T" horiz-adv-x="1142" d="M1092 1174l-207 102v115h-142v-1160l117 -231h-579l116 231v1160h-139v-115l-207 -102v448h1041v-448z" />
<glyph unicode="U" horiz-adv-x="1376" d="M920 1391l-115 231h510l-117 -229v-1164l-115 -229h-788l-117 229v1162l-115 231h580l-117 -231v-1082l39 -78h318l37 78v1082z" />
<glyph unicode="V" horiz-adv-x="1312" d="M924 1391l-95 231h488l-139 -229l-402 -1393h-278l-363 1391l-139 231h579l-94 -231l181 -678l38 -197l39 193z" />
<glyph unicode="W" horiz-adv-x="2101" d="M1710 1391l-92 231h487l-139 -229l-401 -1393h-279l-215 823l-29 150l-28 -152l-238 -821h-278l-363 1391l-139 231h579l-94 -231l172 -654l47 -221l50 221l243 885h232l219 -885l45 -221l49 223z" />
<glyph unicode="X" horiz-adv-x="1370" d="M604 1622l-45 -231l125 -263l43 101l84 162l-45 231h512l-188 -231l-279 -492l373 -668l186 -231h-579l47 231l-146 273l-43 98l-47 -104l-139 -267l47 -231h-510l186 231l336 605l-311 555l-188 231h581z" />
<glyph unicode="Y" horiz-adv-x="1327" d="M616 1622l-47 -231l86 -199l43 -111l43 117l82 193l-47 231h512l-186 -231l-260 -551v-609l116 -231h-579l115 231v605l-271 555l-188 231h581z" />
<glyph unicode="Z" horiz-adv-x="1128" d="M74 231l553 1086l61 74h-342l-229 -115v346h815l117 -231l-539 -1088l-57 -72h368l228 117v-348h-859z" />
<glyph unicode="[" horiz-adv-x="495" d="M479 -119h-393v1858h369v-117h-207v-1622h231v-119z" />
<glyph unicode="\" horiz-adv-x="1011" d="M6 1739h203l792 -1856h-188z" />
<glyph unicode="]" horiz-adv-x="497" d="M14 1741h394v-1858h-369v117h207v1622h-232v119z" />
<glyph unicode="_" horiz-adv-x="1333" d="M86 -121h1159v-184h-1159v184z" />
<glyph unicode="`" horiz-adv-x="630" d="M12 1901h301l279 -162h-246z" />
<glyph unicode="a" horiz-adv-x="1067" d="M401 446h191l-94 355zM580 0l75 195l-10 47h-297l-12 -47l80 -195h-420l117 195l262 913l-60 190h351l286 -1103l119 -195h-491z" />
<glyph unicode="b" horiz-adv-x="1085" d="M463 774h237l27 55v205l-29 60h-260l25 -52v-268zM727 522l-25 47h-239v-321l-21 -43h260l25 47v270zM813 672l131 -68l60 -115v-296l-97 -193h-835l98 193v911l-98 194h835l97 -192v-256l-50 -109z" />
<glyph unicode="c" d="M823 299v-299h-647l-94 193v911l94 194h627v-303l-191 99h-213l-26 -56v-786l26 -47h232l-4 -4z" />
<glyph unicode="d" horiz-adv-x="1126" d="M750 1034l-31 60h-281l25 -52v-794l-21 -43h281l27 47v782zM72 0l98 193v911l-98 194h874l96 -192v-913l-96 -193h-874z" />
<glyph unicode="e" horiz-adv-x="970" d="M911 1298v-303l-190 99h-279l19 -37v-283h80l190 96v-397l-190 96h-80v-333l-17 -31h281l186 96v-301h-841l98 195v909l-98 194h841z" />
<glyph unicode="f" horiz-adv-x="944" d="M911 1298v-303l-190 99h-281l21 -43v-277h80l190 96v-397l-190 96h-80v-374l96 -195h-487l98 195v909l-98 194h841z" />
<glyph unicode="g" horiz-adv-x="1007" d="M942 659l-98 -196v-268l94 -195h-760l-96 193v911l94 194h686v-303l-192 99h-269l-26 -56v-786l24 -47h226l-21 41v215l-94 198h432z" />
<glyph unicode="h" horiz-adv-x="1241" d="M1165 1298l-98 -194v-909l94 -195h-469l99 195v374h-340v-374l94 -195h-471l98 195v909l-98 194h475l-98 -194v-330h340v330l-99 194h473z" />
<glyph unicode="i" horiz-adv-x="600" d="M541 1298l-99 -194v-909l95 -195h-478l97 195v909l-97 194h482z" />
<glyph unicode="j" horiz-adv-x="858" d="M225 205h162l27 47v854l-99 192h488l-98 -190v-915l-97 -193h-573v299z" />
<glyph unicode="k" horiz-adv-x="1191" d="M565 1298l-98 -194v-301l270 495h371l-227 -202l-160 -289l295 -610v2l176 -199h-512l33 195l-246 442v-442l94 -195h-487l98 195v909l-98 194h491z" />
<glyph unicode="l" d="M559 1298l-100 -194v-868l-15 -31h244l186 96v-301h-804l98 195v909l-98 194h489z" />
<glyph unicode="m" horiz-adv-x="1386" d="M1313 1298l-101 -194v-909l99 -195h-418l96 195v469l19 198l-217 -862h-201l-207 872l10 -180v-497l96 -195h-415l98 195v909l-98 194h501l132 -544l20 -136l25 132l149 548h412z" />
<glyph unicode="n" horiz-adv-x="1173" d="M1108 1298l-100 -194v-1104h-217l-408 709l8 -43v-471l96 -195h-413l98 195v909l-98 194h313l401 -720v526l-100 194h420z" />
<glyph unicode="o" horiz-adv-x="1038" d="M662 1034l-29 60h-230l-24 -56v-786l22 -47h236l25 47v782zM180 0l-96 193v911l94 194h680l96 -192v-913l-96 -193h-678z" />
<glyph unicode="p" horiz-adv-x="1060" d="M453 727h268l29 51v256l-31 60h-293l27 -52v-315zM928 524h-475v-329l94 -195h-475l98 193v911l-98 194h856l96 -192v-389z" />
<glyph unicode="q" horiz-adv-x="1005" d="M635 1036l-27 60h-229l-27 -56v-788l23 -45h237l23 45v784zM715 0l116 -102l-126 -158l-250 221l34 39h-333l-99 193v915l97 195h677l99 -193v-917l-99 -193h-116z" />
<glyph unicode="r" horiz-adv-x="1208" d="M467 727h258l29 51v256l-31 60h-281l25 -52v-315zM754 475l-27 49h-260v-524h-393l98 193v911l-98 194h876l99 -192v-301l-52 -109l-139 -69l125 -68l66 -117v-249l96 -193h-295l-96 190v285z" />
<glyph unicode="s" horiz-adv-x="935" d="M860 547v-352l-98 -195h-680v303l188 -98h322l29 55v154l-27 47l-418 147l-94 189v307l94 194h647v-303l-190 99h-287l-27 -56v-106l25 -49l422 -146z" />
<glyph unicode="t" horiz-adv-x="937" d="M885 918l-183 88v88h-88v-899l95 -195h-484l97 195v899h-86v-88l-183 -88v380h832v-380z" />
<glyph unicode="u" horiz-adv-x="1138" d="M737 1104l-98 194h436l-96 -192v-913l-98 -193h-625l-98 193v911l-99 194h490l-96 -194v-852l24 -47h238l22 47v852z" />
<glyph unicode="v" horiz-adv-x="1067" d="M727 1104l-76 194h420l-119 -194l-315 -1104h-236l-288 1102l-117 196h493l-81 -194l141 -529l18 -108l23 106z" />
<glyph unicode="w" horiz-adv-x="1697" d="M1356 1104l-76 194h422l-119 -194l-317 -1104h-238l-174 655l-12 76l-13 -78l-186 -653h-237l-293 1102l-117 196h496l-78 -194l133 -512l26 -121l27 121l193 706h202l176 -706l23 -119l29 121z" />
<glyph unicode="x" horiz-adv-x="1120" d="M510 1298l-37 -194l86 -174l23 51l65 123l-37 194h439l-164 -198v2l-215 -385l291 -520v2l159 -199h-491l39 195l-138 260l-24 -56l-109 -204l39 -195h-436l160 199v-2l260 471l-242 434v-2l-162 198h494z" />
<glyph unicode="y" horiz-adv-x="1103" d="M530 1298l-38 -192l90 -211l20 66l64 145l-37 192h438l-162 -198l2 2l-205 -434v-473l95 -195h-486l97 195v473l-209 434v-2l-162 198h493z" />
<glyph unicode="z" horiz-adv-x="933" d="M74 195l434 862l31 37h-242l-191 -99v303h652l96 -194l-422 -864l-31 -35h267l186 98v-303h-684z" />
<glyph unicode="{" horiz-adv-x="509" d="M129 1012v379l256 348h113l-205 -432v-291l-113 -205l113 -203v-293l205 -432h-113l-256 348v381l-115 199z" />
<glyph unicode="|" horiz-adv-x="239" d="M66 1855h104v-2086h-104v2086z" />
<glyph unicode="}" horiz-adv-x="509" d="M381 612v-381l-256 -348h-113l205 432v293l113 203l-113 205v291l-205 432h113l256 -348v-379l115 -201z" />
<glyph unicode="~" horiz-adv-x="878" d="M37 795l211 153l354 -147l219 149v-127l-207 -151l-354 151l-223 -153v125z" />
<glyph unicode="&#xa1;" horiz-adv-x="546" d="M104 1577l43 45h261l45 -43v-229l-54 -52h-252l-43 43v236zM143 0l-67 139v279l117 741h161l117 -741v-279l-70 -139h-258z" />
<glyph unicode="&#xa2;" d="M399 479h74v891h-74l-26 -55v-787zM473 276h-297l-94 193v911l94 195h297v280h105v-280h247v-305l-190 100h-57v-891h75l193 96v-299h-268v-241h-105v241z" />
<glyph unicode="&#xa3;" horiz-adv-x="1038" d="M0 928h147v465l117 229h719v-344l-231 113h-215l-41 -76v-387h120l242 114v-462l-237 116h-125v-469h354l209 236v-463h-1026l114 227v469h-147v232z" />
<glyph unicode="&#xa5;" horiz-adv-x="1327" d="M252 860h227l-256 531l-188 231h581l-47 -231l86 -199l43 -111l43 117l82 193l-47 231h512l-186 -231l-252 -531h254v-174h-262v-176h262v-176h-262v-103l116 -231h-579l115 231v103h-242v176h242v176h-242v174z" />
<glyph unicode="&#xa7;" horiz-adv-x="1021" d="M713 874l-156 58h-242l-24 -55v-84l22 -50l154 -53h240l30 58v81zM977 965v-283l-98 -195h-88l38 -79v-213l-96 -195h-682v303l191 -98h319l31 55v14l-29 48l-418 147l-94 190v283l94 195h91l-39 77v213l96 195h645v-303l-188 100h-289l-25 -55v-14l23 -50l422 -145z" />
<glyph unicode="&#xa8;" horiz-adv-x="667" d="M627 1786l-45 -47h-144l-45 45v90l53 51h136l45 -45v-94zM279 1786l-46 -47h-143l-43 45v90l53 51h133l46 -45v-94z" />
<glyph unicode="&#xa9;" horiz-adv-x="1472" d="M94 643q0 133 51.5 250t138.5 205t204.5 138t250.5 50t251 -50t205 -138t138 -205t51 -250t-51 -251t-138 -205t-205 -138t-251 -51t-250.5 51t-204.5 138t-138.5 205t-51.5 251zM172 639q0 -117 45 -221.5t122 -181t181.5 -121.5t220.5 -45q119 0 223.5 45t182.5 121.5 t123 181t45 221.5q0 119 -45 223.5t-123 183t-182.5 123.5t-223.5 45q-117 0 -221 -45t-181 -123.5t-122 -183t-45 -223.5zM877 803q-61 82 -146 82q-82 0 -131 -66.5t-49 -185.5q0 -111 52 -180.5t130 -69.5q39 0 77 19.5t67 52.5l116 -80q-88 -143 -262 -144 q-70 0 -129 31t-102 85t-67.5 127t-24.5 159t22.5 160.5t64.5 128t101 84t135 30.5q180 0 266 -155z" />
<glyph unicode="&#xab;" horiz-adv-x="919" d="M881 610v-192l-435 278v232l435 278v-186l-324 -201zM463 610v-192l-432 278v232l432 278v-186l-324 -201z" />
<glyph unicode="&#xad;" d="M86 928h735v-232h-735v232z" />
<glyph unicode="&#xae;" horiz-adv-x="1251" d="M627 1214q-98 0 -176 -34.5t-132.5 -91t-83 -127t-28.5 -142.5q0 -76 28.5 -147.5t83 -128t132 -90t176.5 -33.5q90 0 171 30.5t142 84t97 127t36 157.5q0 72 -32.5 142.5t-92 127t-141.5 91t-180 34.5zM629 330q-115 0 -210 40t-164 107.5t-107.5 155.5t-38.5 186 t38.5 187.5t107.5 157t164 107.5t210 40q113 0 210 -38t167.5 -104.5t110.5 -156.5t40 -193q0 -98 -41 -186t-111.5 -155.5t-167.5 -107.5t-208 -40zM569 969v-121h90q55 0 56 59q0 61 -56 62h-90zM627 739h-58v-194h-102v530h188q76 0 121 -44t45 -124q0 -53 -21.5 -87 t-66.5 -64l94 -211h-110z" />
<glyph unicode="&#xaf;" horiz-adv-x="749" d="M698 1739h-647v159h647v-159z" />
<glyph unicode="&#xb0;" horiz-adv-x="460" d="M340 1493l-12 31h-207l-12 -29v-180l12 -23h209l10 23v178zM82 1192l-49 92v244l45 94h291l49 -94v-244l-49 -92h-287z" />
<glyph unicode="&#xb2;" horiz-adv-x="681" d="M438 1686l-14 32h-213l-156 -86v266h512l82 -161v-178l-311 -498l-21 -21h175l157 84v-264h-624v164z" />
<glyph unicode="&#xb3;" horiz-adv-x="700" d="M55 1120l160 -80h156l14 29v182l-16 37h-160v182h162l14 27v182l-16 39h-156l-158 -86v266h496l82 -161v-291l-39 -76l39 -53v-297l-82 -160h-496v260z" />
<glyph unicode="&#xb4;" horiz-adv-x="600" d="M262 1739h-244l279 162h301z" />
<glyph unicode="&#xb6;" horiz-adv-x="1306" d="M498 793l-21 8l19 8h-404v29l53 59l142 -23l215 -65l73 27l-237 75l-102 154l157 158l154 -103l78 -237l24 75l-63 213l-23 142l62 53h26v-405l8 20l31 -98l80 237l154 103l157 -158l-102 -154l-238 -75l74 -27l215 63l141 23l54 -59v-29h-406l21 -6l-21 -10l-4 2 l-74 -25l238 -80l102 -151l-157 -158l-154 100l-80 238l-24 -74l65 -215l23 -141l-62 -54h-26v406l-7 -21l-10 19v-404h-28l-60 54l23 141l65 215l-24 74l-78 -238l-154 -100l-157 158l102 151l237 80l-73 25l-215 -66l-142 -22l-53 61v27h406zM821 791h404v-29l-54 -60 l-141 23zM668 965v401h28l60 -53l-23 -142zM250 651l-78 -108h-113l70 96zM807 391l108 -78v-112l-96 69zM510 1208l-109 78v113l97 -70zM1067 948l78 109h112l-69 -96zM129 961l-70 98l113 -4l78 -107zM819 1329l99 70l-5 -113l-106 -78zM498 270l-99 -69l4 112l107 78z M1188 639l69 -98l-112 4l-78 106zM752 893l24 8l117 121l2 14l-14 -2l-121 -116zM881 565l14 -2l-2 15l-117 120l-24 9l8 -25zM422 1036l2 -14l117 -121l22 -8l-6 25l-121 116zM557 682l6 23l-22 -7l-117 -120l-2 -15l14 2zM666 963l2 2v-4z" />
<glyph unicode="&#xb8;" horiz-adv-x="485" d="M416 -250l-183 -219h-118l106 150v34h-108l-43 33v158l53 39h250l43 -35v-160z" />
<glyph unicode="&#xb9;" horiz-adv-x="456" d="M379 1898v-870l76 -168h-392l76 162v551h-110v178l106 47l35 100h209z" />
<glyph unicode="&#xbb;" horiz-adv-x="927" d="M444 1014v192l435 -278v-232l-435 -278v184l326 203zM29 1014v192l432 -278v-232l-432 -278v184l323 203z" />
<glyph unicode="&#xbc;" horiz-adv-x="1921" d="M1477 1622h280l-1333 -1622h-295zM1487 387l-10 162l-109 -162h119zM561 1622v-684l72 -145h-375l72 137v418h-90v157l88 39l28 78h205zM1528 829h262l-74 -137v-305h80v-166h-80v-84l72 -137h-377l76 137v84h-203l-70 152z" />
<glyph unicode="&#xbd;" horiz-adv-x="2103" d="M1608 1622h280l-1448 -1622h-295zM604 1622v-684l74 -145h-377l72 137v418h-90v157l88 39l30 78h203zM1675 651l-8 17h-170l-143 -74v235h442l78 -137v-141l-260 -389h108l152 69v-231h-543v141z" />
<glyph unicode="&#xbe;" horiz-adv-x="2041" d="M1595 1622h281l-1456 -1622h-295zM1454 387v164l-123 -164h123zM442 954l9 13v145l-11 14h-137v162h139l9 12v144l-11 16h-123l-143 -74v236h430l76 -135v-227l-35 -56l35 -39v-237l-76 -135h-430v231l141 -70h127zM1495 829h262l-74 -137v-305h82v-166h-82v-84l72 -137 h-375l74 137v84h-203l-69 152z" />
<glyph unicode="&#xbf;" horiz-adv-x="1028" d="M408 1577l45 45h260l43 -43v-229l-54 -52h-249l-45 43v236zM616 795l-245 -97l-39 -77v-306l43 -84h375l231 117v-348h-811l-117 231v469l117 230l246 98l39 80l-45 84h323v-168z" />
<glyph unicode="&#xc0;" horiz-adv-x="1312" d="M0 0zM471 539h279l-138 520zM809 305h-401l-19 -74l92 -231h-485l139 229l332 1151l-94 242h440l365 -1391l139 -231h-580l92 231zM264 1901h301l279 -162h-246z" />
<glyph unicode="&#xc1;" horiz-adv-x="1312" d="M0 0zM471 539h279l-138 520zM809 305h-401l-19 -74l92 -231h-485l139 229l332 1151l-94 242h440l365 -1391l139 -231h-580l92 231zM713 1739h-244l279 162h301z" />
<glyph unicode="&#xc2;" horiz-adv-x="1312" d="M0 0zM471 539h279l-138 520zM809 305h-401l-19 -74l92 -231h-485l139 229l332 1151l-94 242h440l365 -1391l139 -231h-580l92 231zM563 1739h-248l262 188h232l295 -188h-285l-131 125z" />
<glyph unicode="&#xc3;" horiz-adv-x="1312" d="M0 0zM471 539h279l-138 520zM809 305h-401l-19 -74l92 -231h-485l139 229l332 1151l-94 242h440l365 -1391l139 -231h-580l92 231zM281 1827l194 141l332 -137l203 139v-117l-193 -139l-329 139l-207 -143v117z" />
<glyph unicode="&#xc4;" horiz-adv-x="1312" d="M0 0zM471 539h279l-138 520zM809 305h-401l-19 -74l92 -231h-485l139 229l332 1151l-94 242h440l365 -1391l139 -231h-580l92 231zM961 1786l-45 -47h-144l-45 45v90l53 51h136l45 -45v-94zM613 1786l-46 -47h-143l-43 45v90l53 51h133l46 -45v-94z" />
<glyph unicode="&#xc5;" horiz-adv-x="1312" d="M0 0zM471 539h279l-138 520zM809 305h-401l-19 -74l92 -231h-485l139 229l332 1151l-94 242h440l365 -1391l139 -231h-580l92 231zM737 1860l-14 30h-113l-12 -28v-86l12 -23h117l10 23v84zM571 1653l-49 92v149l47 95h197l49 -95v-149l-49 -92h-195z" />
<glyph unicode="&#xc6;" horiz-adv-x="1558" d="M494 539h188v503zM682 305h-256l-37 -74l92 -231h-485l139 229l494 1393h835v-346l-231 115h-240l31 -68v-395h94l232 114v-462l-232 116h-94v-403l-27 -62h236l231 117v-348h-901l119 231v74z" />
<glyph unicode="&#xc7;" horiz-adv-x="1091" d="M82 0zM1008 346v-346h-811l-115 229v1162l115 231h786v-346l-231 115h-279l-45 -84v-998l41 -78h307zM832 -250l-183 -219h-118l106 150v34h-108l-43 33v158l53 39h250l43 -35v-160z" />
<glyph unicode="&#xc8;" horiz-adv-x="1169" d="M70 0zM1112 1622v-346l-231 115h-379l30 -68v-350h117l232 117v-463l-232 114h-117v-448l-26 -62h375l231 117v-348h-1042l116 231v1160l-116 231h1042zM252 1901h301l279 -162h-246z" />
<glyph unicode="&#xc9;" horiz-adv-x="1169" d="M70 0zM1112 1622v-346l-231 115h-379l30 -68v-350h117l232 117v-463l-232 114h-117v-448l-26 -62h375l231 117v-348h-1042l116 231v1160l-116 231h1042zM592 1739h-244l279 162h301z" />
<glyph unicode="&#xca;" horiz-adv-x="1169" d="M70 0zM1112 1622v-346l-231 115h-379l30 -68v-350h117l232 117v-463l-232 114h-117v-448l-26 -62h375l231 117v-348h-1042l116 231v1160l-116 231h1042zM477 1739h-248l262 188h232l295 -188h-285l-131 125z" />
<glyph unicode="&#xcb;" horiz-adv-x="1169" d="M70 0zM1112 1622v-346l-231 115h-379l30 -68v-350h117l232 117v-463l-232 114h-117v-448l-26 -62h375l231 117v-348h-1042l116 231v1160l-116 231h1042zM903 1786l-45 -47h-144l-45 45v90l53 51h136l45 -45v-94zM555 1786l-46 -47h-143l-43 45v90l53 51h133l46 -45v-94z " />
<glyph unicode="&#xcc;" horiz-adv-x="698" d="M0 0zM639 1622l-117 -231v-1160l115 -231h-580l117 231v1160l-117 231h582zM-43 1901h301l279 -162h-246z" />
<glyph unicode="&#xcd;" horiz-adv-x="698" d="M57 0zM639 1622l-117 -231v-1160l115 -231h-580l117 231v1160l-117 231h582zM436 1739h-244l279 162h301z" />
<glyph unicode="&#xce;" horiz-adv-x="698" d="M0 0zM639 1622l-117 -231v-1160l115 -231h-580l117 231v1160l-117 231h582zM217 1739h-248l262 188h232l295 -188h-285l-131 125z" />
<glyph unicode="&#xcf;" horiz-adv-x="698" d="M47 0zM639 1622l-117 -231v-1160l115 -231h-580l117 231v1160l-117 231h582zM627 1786l-45 -47h-144l-45 45v90l53 51h136l45 -45v-94zM279 1786l-46 -47h-143l-43 45v90l53 51h133l46 -45v-94z" />
<glyph unicode="&#xd0;" horiz-adv-x="1361" d="M86 928h102v463l-116 231h1089l117 -229v-1164l-117 -229h-1089l116 229v467h-102v232zM930 1307l-41 84h-393l41 -84v-379h284v-232h-284v-387l-35 -78h391l37 78v998z" />
<glyph unicode="&#xd1;" horiz-adv-x="1415" d="M72 0zM1350 1622l-119 -231v-1391h-254l-559 969l24 -142v-596l117 -231h-487l116 231v1160l-116 231h372l543 -963l-10 144v588l-117 231h490zM340 1827l194 141l332 -137l203 139v-117l-193 -139l-329 139l-207 -143v117z" />
<glyph unicode="&#xd2;" horiz-adv-x="1257" d="M84 0zM825 1307l-41 84h-309l-43 -84v-998l39 -78h317l37 78v998zM199 0l-115 229v1162l115 231h858l117 -229v-1164l-117 -229h-858zM207 1901h301l279 -162h-246z" />
<glyph unicode="&#xd3;" horiz-adv-x="1257" d="M84 0zM825 1307l-41 84h-309l-43 -84v-998l39 -78h317l37 78v998zM199 0l-115 229v1162l115 231h858l117 -229v-1164l-117 -229h-858zM668 1739h-244l279 162h301z" />
<glyph unicode="&#xd4;" horiz-adv-x="1257" d="M84 0zM825 1307l-41 84h-309l-43 -84v-998l39 -78h317l37 78v998zM199 0l-115 229v1162l115 231h858l117 -229v-1164l-117 -229h-858zM485 1739h-248l262 188h232l295 -188h-285l-131 125z" />
<glyph unicode="&#xd5;" horiz-adv-x="1257" d="M84 0zM825 1307l-41 84h-309l-43 -84v-998l39 -78h317l37 78v998zM199 0l-115 229v1162l115 231h858l117 -229v-1164l-117 -229h-858zM270 1827l194 141l332 -137l203 139v-117l-193 -139l-329 139l-207 -143v117z" />
<glyph unicode="&#xd6;" horiz-adv-x="1257" d="M84 0zM825 1307l-41 84h-309l-43 -84v-998l39 -78h317l37 78v998zM199 0l-115 229v1162l115 231h858l117 -229v-1164l-117 -229h-858zM922 1786l-45 -47h-144l-45 45v90l53 51h136l45 -45v-94zM574 1786l-46 -47h-143l-43 45v90l53 51h133l46 -45v-94z" />
<glyph unicode="&#xd7;" horiz-adv-x="1103" d="M258 1270l293 -293l297 297l166 -166l-297 -297l295 -295l-166 -164l-295 295l-293 -295l-166 164l295 295l-295 295z" />
<glyph unicode="&#xd8;" horiz-adv-x="1257" d="M182 31l-98 198v1162l115 231h675l52 117h188l-53 -125l113 -221v-1164l-117 -229h-686l-49 -117h-203zM825 1061l-354 -830h317l37 78v752zM432 602l342 789h-299l-43 -84v-705z" />
<glyph unicode="&#xd9;" horiz-adv-x="1376" d="M63 0zM920 1391l-115 231h510l-117 -229v-1164l-115 -229h-788l-117 229v1162l-115 231h580l-117 -231v-1082l39 -78h318l37 78v1082zM280 1901h301l279 -162h-246z" />
<glyph unicode="&#xda;" horiz-adv-x="1376" d="M63 0zM920 1391l-115 231h510l-117 -229v-1164l-115 -229h-788l-117 229v1162l-115 231h580l-117 -231v-1082l39 -78h318l37 78v1082zM749 1739h-244l279 162h301z" />
<glyph unicode="&#xdb;" horiz-adv-x="1376" d="M63 0zM920 1391l-115 231h510l-117 -229v-1164l-115 -229h-788l-117 229v1162l-115 231h580l-117 -231v-1082l39 -78h318l37 78v1082zM598 1739h-248l262 188h232l295 -188h-285l-131 125z" />
<glyph unicode="&#xdc;" horiz-adv-x="1376" d="M63 0zM920 1391l-115 231h510l-117 -229v-1164l-115 -229h-788l-117 229v1162l-115 231h580l-117 -231v-1082l39 -78h318l37 78v1082zM1012 1786l-45 -47h-144l-45 45v90l53 51h136l45 -45v-94zM664 1786l-46 -47h-143l-43 45v90l53 51h133l46 -45v-94z" />
<glyph unicode="&#xdd;" horiz-adv-x="1327" d="M35 0zM616 1622l-47 -231l86 -199l43 -111l43 117l82 193l-47 231h512l-186 -231l-260 -551v-609l116 -231h-579l115 231v605l-271 555l-188 231h581zM637 1739h-244l279 162h301z" />
<glyph unicode="&#xde;" horiz-adv-x="1095" d="M733 926l-28 59h-183v-426h187l24 49v318zM522 354v-123l115 -231h-580l117 231v1160l-117 231h582l-117 -231v-201h408l98 -193v-450l-98 -193h-408z" />
<glyph unicode="&#xdf;" horiz-adv-x="1847" d="M82 0zM860 547v-352l-98 -195h-680v303l188 -98h322l29 55v154l-27 47l-418 147l-94 189v307l94 194h647v-303l-190 99h-287l-27 -56v-106l25 -49l422 -146zM1771 547v-352l-98 -195h-680v303l188 -98h322l29 55v154l-27 47l-418 147l-94 189v307l94 194h647v-303 l-190 99h-287l-27 -56v-106l25 -49l422 -146z" />
<glyph unicode="&#xe0;" horiz-adv-x="1067" d="M0 0zM401 446h191l-94 355zM580 0l75 195l-10 47h-297l-12 -47l80 -195h-420l117 195l262 913l-60 190h351l286 -1103l119 -195h-491zM141 1563h301l279 -162h-246z" />
<glyph unicode="&#xe1;" horiz-adv-x="1067" d="M0 0zM401 446h191l-94 355zM580 0l75 195l-10 47h-297l-12 -47l80 -195h-420l117 195l262 913l-60 190h351l286 -1103l119 -195h-491zM538 1401h-244l279 162h301z" />
<glyph unicode="&#xe2;" horiz-adv-x="1067" d="M0 0zM401 446h191l-94 355zM580 0l75 195l-10 47h-297l-12 -47l80 -195h-420l117 195l262 913l-60 190h351l286 -1103l119 -195h-491zM411 1401h-248l262 188h232l295 -188h-285l-131 125z" />
<glyph unicode="&#xe3;" horiz-adv-x="1067" d="M0 0zM401 446h191l-94 355zM580 0l75 195l-10 47h-297l-12 -47l80 -195h-420l117 195l262 913l-60 190h351l286 -1103l119 -195h-491zM164 1489l194 141l332 -137l203 139v-117l-193 -139l-329 139l-207 -143v117z" />
<glyph unicode="&#xe4;" horiz-adv-x="1067" d="M0 0zM401 446h191l-94 355zM580 0l75 195l-10 47h-297l-12 -47l80 -195h-420l117 195l262 913l-60 190h351l286 -1103l119 -195h-491zM838 1448l-45 -47h-144l-45 45v90l53 51h136l45 -45v-94zM490 1448l-46 -47h-143l-43 45v90l53 51h133l46 -45v-94z" />
<glyph unicode="&#xe5;" horiz-adv-x="1067" d="M0 0zM401 446h191l-94 355zM580 0l75 195l-10 47h-297l-12 -47l80 -195h-420l117 195l262 913l-60 190h351l286 -1103l119 -195h-491zM618 1522l-14 30h-113l-12 -28v-86l12 -23h117l10 23v84zM452 1315l-49 92v149l47 95h197l49 -95v-149l-49 -92h-195z" />
<glyph unicode="&#xe6;" horiz-adv-x="1224" d="M532 446v320l-118 -320h118zM532 242h-182l-22 -47l80 -195h-422l120 197l-2 -2l392 1103h678v-303l-193 99h-176l22 -41v-301h62l194 94v-395l-194 96h-62v-311l-16 -31h170l193 96v-301h-740l98 195v47z" />
<glyph unicode="&#xe7;" d="M82 0zM823 299v-299h-647l-94 193v911l94 194h627v-303l-191 99h-213l-26 -56v-786l26 -47h232l-4 -4zM709 -250l-183 -219h-118l106 150v34h-108l-43 33v158l53 39h250l43 -35v-160z" />
<glyph unicode="&#xe8;" horiz-adv-x="970" d="M70 0zM911 1298v-303l-190 99h-279l19 -37v-283h80l190 96v-397l-190 96h-80v-333l-17 -31h281l186 96v-301h-841l98 195v909l-98 194h841zM118 1563h301l279 -162h-246z" />
<glyph unicode="&#xe9;" horiz-adv-x="970" d="M70 0zM911 1298v-303l-190 99h-279l19 -37v-283h80l190 96v-397l-190 96h-80v-333l-17 -31h281l186 96v-301h-841l98 195v909l-98 194h841zM495 1401h-244l279 162h301z" />
<glyph unicode="&#xea;" horiz-adv-x="970" d="M70 0zM911 1298v-303l-190 99h-279l19 -37v-283h80l190 96v-397l-190 96h-80v-333l-17 -31h281l186 96v-301h-841l98 195v909l-98 194h841zM352 1401h-248l262 188h232l295 -188h-285l-131 125z" />
<glyph unicode="&#xeb;" horiz-adv-x="970" d="M70 0zM911 1298v-303l-190 99h-279l19 -37v-283h80l190 96v-397l-190 96h-80v-333l-17 -31h281l186 96v-301h-841l98 195v909l-98 194h841zM801 1448l-45 -47h-144l-45 45v90l53 51h136l45 -45v-94zM453 1448l-46 -47h-143l-43 45v90l53 51h133l46 -45v-94z" />
<glyph unicode="&#xec;" horiz-adv-x="600" d="M0 0zM541 1298l-99 -194v-909l95 -195h-478l97 195v909l-97 194h482zM-54 1563h301l279 -162h-246z" />
<glyph unicode="&#xed;" horiz-adv-x="600" d="M59 0zM541 1298l-99 -194v-909l95 -195h-478l97 195v909l-97 194h482zM321 1401h-244l279 162h301z" />
<glyph unicode="&#xee;" horiz-adv-x="600" d="M0 0zM541 1298l-99 -194v-909l95 -195h-478l97 195v909l-97 194h482zM180 1401h-248l262 188h232l295 -188h-285l-131 125z" />
<glyph unicode="&#xef;" horiz-adv-x="600" d="M25 0zM541 1298l-99 -194v-909l95 -195h-478l97 195v909l-97 194h482zM604 1448l-45 -47h-144l-45 45v90l53 51h136l45 -45v-94zM256 1448l-46 -47h-143l-43 45v90l53 51h133l46 -45v-94z" />
<glyph unicode="&#xf0;" horiz-adv-x="1126" d="M59 786h111v318l-98 194h874l96 -192v-913l-96 -193h-874l98 193v348h-111v245zM750 1034l-31 60h-281l25 -52v-256h209v-245h-209v-293l-21 -43h281l27 47v782z" />
<glyph unicode="&#xf1;" horiz-adv-x="1173" d="M74 0zM1108 1298l-100 -194v-1104h-217l-408 709l8 -43v-471l96 -195h-413l98 195v909l-98 194h313l401 -720v526l-100 194h420zM215 1489l194 141l332 -137l203 139v-117l-193 -139l-329 139l-207 -143v117z" />
<glyph unicode="&#xf2;" horiz-adv-x="1038" d="M84 0zM662 1034l-29 60h-230l-24 -56v-786l22 -47h236l25 47v782zM180 0l-96 193v911l94 194h680l96 -192v-913l-96 -193h-678zM121 1563h301l279 -162h-246z" />
<glyph unicode="&#xf3;" horiz-adv-x="1038" d="M84 0zM662 1034l-29 60h-230l-24 -56v-786l22 -47h236l25 47v782zM180 0l-96 193v911l94 194h680l96 -192v-913l-96 -193h-678zM512 1401h-244l279 162h301z" />
<glyph unicode="&#xf4;" horiz-adv-x="1038" d="M84 0zM662 1034l-29 60h-230l-24 -56v-786l22 -47h236l25 47v782zM180 0l-96 193v911l94 194h680l96 -192v-913l-96 -193h-678zM381 1401h-248l262 188h232l295 -188h-285l-131 125z" />
<glyph unicode="&#xf5;" horiz-adv-x="1038" d="M84 0zM662 1034l-29 60h-230l-24 -56v-786l22 -47h236l25 47v782zM180 0l-96 193v911l94 194h680l96 -192v-913l-96 -193h-678zM162 1489l194 141l332 -137l203 139v-117l-193 -139l-329 139l-207 -143v117z" />
<glyph unicode="&#xf6;" horiz-adv-x="1038" d="M84 0zM662 1034l-29 60h-230l-24 -56v-786l22 -47h236l25 47v782zM180 0l-96 193v911l94 194h680l96 -192v-913l-96 -193h-678zM801 1448l-45 -47h-144l-45 45v90l53 51h136l45 -45v-94zM453 1448l-46 -47h-143l-43 45v90l53 51h133l46 -45v-94z" />
<glyph unicode="&#xf7;" d="M627 1067l-45 -47h-260l-43 45v229l53 52h250l45 -46v-233zM627 324l-45 -45h-260l-43 43v229l53 51h250l45 -43v-235zM86 928h735v-232h-735v232z" />
<glyph unicode="&#xf8;" horiz-adv-x="1038" d="M84 0zM662 1034l-29 60h-230l-24 -56v-786l22 -47h236l25 47v782zM180 0l-96 193v911l94 194h680l96 -192v-913l-96 -193h-678zM750.495 1365.48h144.179l-607.391 -1422.13h-155.682z" />
<glyph unicode="&#xf9;" horiz-adv-x="1138" d="M59 0zM737 1104l-98 194h436l-96 -192v-913l-98 -193h-625l-98 193v911l-99 194h490l-96 -194v-852l24 -47h238l22 47v852zM155 1563h301l279 -162h-246z" />
<glyph unicode="&#xfa;" horiz-adv-x="1138" d="M59 0zM737 1104l-98 194h436l-96 -192v-913l-98 -193h-625l-98 193v911l-99 194h490l-96 -194v-852l24 -47h238l22 47v852zM575 1401h-244l279 162h301z" />
<glyph unicode="&#xfb;" horiz-adv-x="1138" d="M59 0zM737 1104l-98 194h436l-96 -192v-913l-98 -193h-625l-98 193v911l-99 194h490l-96 -194v-852l24 -47h238l22 47v852zM461 1401h-248l262 188h232l295 -188h-285l-131 125z" />
<glyph unicode="&#xfc;" horiz-adv-x="1138" d="M59 0zM737 1104l-98 194h436l-96 -192v-913l-98 -193h-625l-98 193v911l-99 194h490l-96 -194v-852l24 -47h238l22 47v852zM879 1448l-45 -47h-144l-45 45v90l53 51h136l45 -45v-94zM531 1448l-46 -47h-143l-43 45v90l53 51h133l46 -45v-94z" />
<glyph unicode="&#xfd;" horiz-adv-x="1103" d="M37 0zM530 1298l-38 -192l90 -211l20 66l64 145l-37 192h438l-162 -198l2 2l-205 -434v-473l95 -195h-486l97 195v473l-209 434v-2l-162 198h493zM557 1401h-244l279 162h301z" />
<glyph unicode="&#xfe;" horiz-adv-x="874" d="M549 774h-123v-313h129l14 33v239zM426 279v-84l96 -195h-483l96 195v909l-96 194h487l-100 -194v-146h311l82 -163v-353l-80 -163h-313z" />
<glyph unicode="&#xff;" horiz-adv-x="1103" d="M37 0zM530 1298l-38 -192l90 -211l20 66l64 145l-37 192h438l-162 -198l2 2l-205 -434v-473l95 -195h-486l97 195v473l-209 434v-2l-162 198h493zM856 1448l-45 -47h-144l-45 45v90l53 51h136l45 -45v-94zM508 1448l-46 -47h-143l-43 45v90l53 51h133l46 -45v-94z" />
<glyph unicode="&#x152;" horiz-adv-x="1630" d="M733 1307l-43 84h-215l-43 -84v-998l39 -78h225l37 78v998zM1573 1622v-346l-234 115h-286l32 -68v-395h115l234 114v-462l-234 116h-115v-403l-28 -62h282l234 117v-348h-1374l-115 229v1162l115 231h1374z" />
<glyph unicode="&#x153;" horiz-adv-x="1277" d="M1253 1298v-303l-192 99h-205l18 -37v-305h78l193 94v-395l-193 96h-78v-311l-14 -31h201l-4 -4l196 100v-301h-1089l-98 193v911l96 194h1091zM575 1038l-30 56h-156l-27 -56v-786l23 -47h164l26 47v786z" />
<glyph unicode="&#x178;" horiz-adv-x="1327" d="M35 0zM616 1622l-47 -231l86 -199l43 -111l43 117l82 193l-47 231h512l-186 -231l-260 -551v-609l116 -231h-579l115 231v605l-271 555l-188 231h581zM981 1786l-45 -47h-144l-45 45v90l53 51h136l45 -45v-94zM633 1786l-46 -47h-143l-43 45v90l53 51h133l46 -45v-94z " />
<glyph unicode="&#x2c6;" horiz-adv-x="993" d="M348 1739h-248l262 188h232l295 -188h-285l-131 125z" />
<glyph unicode="&#x2da;" horiz-adv-x="385" d="M266 1860l-14 30h-113l-12 -28v-86l12 -23h117l10 23v84zM100 1653l-49 92v149l47 95h197l49 -95v-149l-49 -92h-195z" />
<glyph unicode="&#x2dc;" horiz-adv-x="819" d="M37 1827l194 141l332 -137l203 139v-117l-193 -139l-329 139l-207 -143v117z" />
<glyph unicode="&#x2000;" horiz-adv-x="994" />
<glyph unicode="&#x2001;" horiz-adv-x="1989" />
<glyph unicode="&#x2002;" horiz-adv-x="994" />
<glyph unicode="&#x2003;" horiz-adv-x="1989" />
<glyph unicode="&#x2004;" horiz-adv-x="663" />
<glyph unicode="&#x2005;" horiz-adv-x="497" />
<glyph unicode="&#x2006;" horiz-adv-x="331" />
<glyph unicode="&#x2007;" horiz-adv-x="331" />
<glyph unicode="&#x2008;" horiz-adv-x="248" />
<glyph unicode="&#x2009;" horiz-adv-x="397" />
<glyph unicode="&#x200a;" horiz-adv-x="110" />
<glyph unicode="&#x2010;" d="M86 928h735v-232h-735v232z" />
<glyph unicode="&#x2011;" d="M86 928h735v-232h-735v232z" />
<glyph unicode="&#x2012;" d="M86 928h735v-232h-735v232z" />
<glyph unicode="&#x2013;" horiz-adv-x="1138" d="M86 928h963v-232h-963v232z" />
<glyph unicode="&#x2014;" horiz-adv-x="1540" d="M86 928h1389v-232h-1389v232z" />
<glyph unicode="&#x2018;" horiz-adv-x="415" d="M39 1460l184 279h117l-107 -191v-41h111l43 -45v-196l-53 -52h-250l-45 46v200z" />
<glyph unicode="&#x2019;" horiz-adv-x="419" d="M383 1376l-184 -276h-117l106 188v43h-110l-43 43v199l53 49h250l45 -43v-203z" />
<glyph unicode="&#x201a;" horiz-adv-x="460" d="M410 78l-183 -277h-118l106 189v43h-109l-43 43v198l54 50h250l43 -43v-203z" />
<glyph unicode="&#x201c;" horiz-adv-x="866" d="M33 1460l182 279h119l-107 -191v-41h109l45 -45v-196l-53 -52h-252l-43 46v200zM473 1460l182 279h119l-106 -191v-41h108l45 -45v-196l-53 -52h-252l-43 46v200z" />
<glyph unicode="&#x201d;" horiz-adv-x="847" d="M819 1376l-184 -276h-119l109 188v43h-111l-43 43v199l53 49h250l45 -43v-203zM379 1376l-184 -276h-119l106 188v43h-108l-43 43v199l53 49h250l45 -43v-203z" />
<glyph unicode="&#x201e;" horiz-adv-x="937" d="M850 78l-182 -277h-119l106 189v43h-108l-43 43v198l53 50h250l43 -43v-203zM410 78l-183 -277h-118l106 189v43h-109l-43 43v198l54 50h250l43 -43v-203z" />
<glyph unicode="&#x2022;" horiz-adv-x="821" d="M766 578l-92 -97h-527l-90 92v465l111 103h506l92 -88v-475z" />
<glyph unicode="&#x2026;" horiz-adv-x="3342" d="M532 0zM879 47l-43 -47h-260l-43 45v229l53 50h250l43 -43v-234zM1843 47l-43 -47h-260l-43 45v229l53 50h250l43 -43v-234zM2808 47l-43 -47h-260l-43 45v229l53 50h250l43 -43v-234z" />
<glyph unicode="&#x202f;" horiz-adv-x="397" />
<glyph unicode="&#x2039;" horiz-adv-x="514" d="M463 610v-192l-432 278v232l432 278v-186l-324 -201z" />
<glyph unicode="&#x203a;" horiz-adv-x="514" d="M29 1014v192l432 -278v-232l-432 -278v184l323 203z" />
<glyph unicode="&#x205f;" horiz-adv-x="497" />
<glyph unicode="&#x20ac;" horiz-adv-x="1091" d="M-18 1059h100v332l115 231h786v-346l-231 115h-279l-45 -84v-248h360v-166h-360v-168h360v-166h-360v-250l41 -78h307l232 115v-346h-811l-115 229v330h-100v166h100v168h-100v166z" />
<glyph unicode="&#x2122;" horiz-adv-x="1527" d="M1042 1303l88 319h308l-76 -135v-557l74 -137h-324l70 141v192l-88 -333h-158l-82 350v-213l66 -137h-318l70 137v557l-68 131v-279l-110 121h-60v-530l68 -137h-361l72 137v530h-57l-111 -121v283h916z" />
<glyph unicode="&#x25fc;" horiz-adv-x="1300" d="M0 1300h1300v-1300h-1300v1300z" />
<glyph horiz-adv-x="1159" d="M0 0z" />
</font>
</defs>
</svg>
