<?xml version="1.0" standalone="no"?>
<!DOCTYPE svg PUBLIC "-//W3C//DTD SVG 1.1//EN" "http://www.w3.org/Graphics/SVG/1.1/DTD/svg11.dtd" >
<svg xmlns="http://www.w3.org/2000/svg">
<metadata></metadata>
<defs>
<font id="kirstyitalic" horiz-adv-x="909" >
<font-face units-per-em="2048" ascent="1579" descent="-469" />
<missing-glyph horiz-adv-x="450" />
<glyph horiz-adv-x="0" />
<glyph unicode="&#xd;" horiz-adv-x="1159" />
<glyph unicode=" "  horiz-adv-x="450" />
<glyph unicode="&#x09;" horiz-adv-x="450" />
<glyph unicode="&#xa0;" horiz-adv-x="450" />
<glyph unicode="!" horiz-adv-x="546" d="M451 47l-52 -47h-260l-37 45l50 229l63 50h252l35 -43zM748 1622l38 -137l-59 -279l-274 -743h-162l41 743l59 279l98 137h259z" />
<glyph unicode="&#x22;" horiz-adv-x="643" d="M852 1622l39 -137l-17 -70l-196 -487h-45l10 487l16 70l99 137h94zM573 1622l39 -137l-16 -70l-195 -487h-47l11 487l16 70l98 137h94z" />
<glyph unicode="#" horiz-adv-x="1724" d="M1708 1423l-10 54h-154l-39 -54l-78 -368l17 -51h153l33 51zM1135 739h665l-31 -145h-665zM1239 858l-41 146l100 473l103 145h495l48 -143l-101 -475l-108 -146h-496zM1233 1622l-109 -145l-188 -883h-160l-223 616v-92l-82 -379l43 -145h-311l104 145l158 738l-43 145 h237l215 -608l11 88l80 375l-41 145h309z" />
<glyph unicode="$" horiz-adv-x="1101" d="M727 596l-57 -272h114l62 84l14 71l-22 78zM608 1067l135 -51l60 282h-141l-60 -84l-16 -71zM547 92h-463l74 348l207 -116h231l63 297l-323 120l-66 230l70 327l164 232h348l20 92h74l-20 -92h391l-74 -348l-209 116h-157l-66 -309l299 -108l66 -230l-70 -327l-164 -232 h-321l-13 -92h-80z" />
<glyph unicode="%" horiz-adv-x="1802" d="M799 1307l-19 84h-149l-62 -84l-63 -303l22 -74h158l49 74zM1638 612l-22 84h-146l-61 -84l-63 -301l20 -78h156l53 78zM1161 0l-67 229l100 467l164 234h465l65 -234l-100 -467l-162 -229h-465zM1475 1532h-467l43 -139l-99 -467l-166 -230h-462l-68 230l98 465l166 231 h1225l-1137 -1622h-202z" />
<glyph unicode="&#x26;" horiz-adv-x="1200" d="M702 1159l37 -102l125 102l33 156l-23 76h-77l-64 -84zM733 371l-115 313l-79 -68l-64 -307l29 -86h82zM817 856l115 -289l219 215l123 -166l-262 -254l145 -362h-283l-63 164l-168 -164h-465l-67 229l55 260l160 232l215 174l-97 264l50 232l165 231h441l67 -229 l-49 -234l-84 -119z" />
<glyph unicode="'" horiz-adv-x="393" d="M623 1622l39 -137l-17 -70l-219 -487h-70l-12 487l16 70l97 137h166z" />
<glyph unicode="(" horiz-adv-x="487" d="M426 -117h-139l-183 346l248 1162l330 348h113l-297 -432l-211 -998z" />
<glyph unicode=")" horiz-adv-x="487" d="M401 1739h140l180 -346l-246 -1162l-330 -348h-114l299 432l213 1000z" />
<glyph unicode="*" horiz-adv-x="866" d="M793 1346l323 10l-268 -180l110 -306l-256 199l-258 -199l111 306l-268 180l325 -10l90 311z" />
<glyph unicode="+" horiz-adv-x="1103" d="M215 928h418l88 420h231l-88 -420h418l-49 -232h-418l-90 -417h-231l90 417h-418z" />
<glyph unicode="," horiz-adv-x="460" d="M426 78l-242 -277h-118l145 189l10 43h-108l-35 43l43 198l63 50h250l35 -43z" />
<glyph unicode="-" d="M283 928h735l-49 -232h-736z" />
<glyph unicode="." horiz-adv-x="514" d="M436 47l-51 -47h-260l-35 45l49 229l64 50h250l34 -43z" />
<glyph unicode="/" horiz-adv-x="1011" d="M1182 1739h188l-1188 -1856h-200z" />
<glyph unicode="0" horiz-adv-x="1187" d="M1032 1307l-22 84h-240l-61 -84l-211 -998l22 -78h248l53 78zM199 0l-68 229l248 1162l164 231h788l68 -229l-248 -1164l-164 -229h-788z" />
<glyph unicode="1" horiz-adv-x="741" d="M920 1622l-295 -1391l65 -231h-579l165 231l197 928h-188l49 232l192 73l88 158h306z" />
<glyph unicode="2" horiz-adv-x="1136" d="M1051 1307l-25 84h-375l-256 -115l74 346h811l68 -231l-60 -281l-680 -795l-112 -84h374l256 117l-73 -348h-975l49 231z" />
<glyph unicode="3" horiz-adv-x="1069" d="M649 231l56 78l63 303l-25 84h-249l49 232h254l55 76l63 303l-24 84h-277l-256 -115l74 346h785l65 -231l-98 -465l-99 -135l50 -95l-101 -467l-162 -229h-786l72 346l209 -115h282z" />
<glyph unicode="4" horiz-adv-x="1130" d="M709 696l102 480l-416 -480h314zM965 1622h407l-168 -231l-147 -695h160l-50 -233h-159l-50 -232l66 -231h-580l166 231l49 232h-419l-70 252z" />
<glyph unicode="5" horiz-adv-x="1138" d="M1206 698l-98 -467l-164 -231h-858l74 348l207 -117h372l62 84l65 303l-22 78h-496l-76 183l158 743h928l-74 -346l-207 115h-413l22 -84l-63 -303l24 -76h494z" />
<glyph unicode="6" horiz-adv-x="1247" d="M952 600l-22 96h-350l-82 -387l22 -78h318l53 78zM629 928h624l68 -232l-100 -467l-164 -229h-858l-68 229l248 1162l164 231h872l-74 -346l-206 115h-365l-61 -84z" />
<glyph unicode="7" horiz-adv-x="1036" d="M299 231l614 1086l80 74h-399l-254 -115l74 346h815l67 -231l-653 -1160l23 -231h-580z" />
<glyph unicode="8" horiz-adv-x="1210" d="M643 1001l25 -73h288l58 78l63 301l-24 84h-285l-59 -84zM932 618l-23 78h-291l-57 -80l-63 -307l22 -78h291l55 78zM1202 717l45 -137l-76 -351l-163 -229h-809l-68 229l74 344l100 144l203 92l-162 102l-39 140l72 340l164 231h809l67 -229l-73 -351l-95 -131 l-209 -100z" />
<glyph unicode="9" horiz-adv-x="1245" d="M637 1022l22 -94h351l82 387l-23 76h-317l-54 -76zM961 696h-625l-68 232l99 465l165 229h859l65 -229l-246 -1162l-163 -231h-873l74 348l207 -117h364l60 84z" />
<glyph unicode=":" horiz-adv-x="520" d="M559 602l-55 -45h-260l-33 43l49 229l64 52h249l35 -43zM440 47l-53 -47h-260l-35 45l49 229l64 50h250l37 -43z" />
<glyph unicode=";" horiz-adv-x="471" d="M537 602l-54 -45h-260l-33 43l50 229l63 52h250l33 -43zM426 78l-242 -277h-118l145 189l10 43h-108l-35 43l43 198l63 50h250l35 -43z" />
<glyph unicode="&#x3c;" horiz-adv-x="890" d="M915 371h-301l-436 325l49 232l574 323h301l-789 -432z" />
<glyph unicode="=" horiz-adv-x="1054" d="M233 696h928l-49 -233h-928zM332 1159h928l-50 -231h-927z" />
<glyph unicode="&#x3e;" horiz-adv-x="890" d="M315 1251h301l439 -323l-49 -232l-576 -325h-301l791 434z" />
<glyph unicode="?" horiz-adv-x="1028" d="M635 47l-53 -47h-260l-35 45l49 229l63 50h250l37 -43zM592 827l268 99l53 75l66 306l-25 84h-374l-256 -115l73 346h811l68 -231l-100 -467l-166 -232l-267 -96l-55 -82l27 -82h-324l37 166z" />
<glyph unicode="@" horiz-adv-x="1429" d="M664 283l10 -43h168l30 43l43 206h-184l-35 -51zM985 813l-12 45h-193l-139 -61l41 186h465l35 -125l-133 -618h151l172 809l-24 84h-773l-61 -84l-211 -996l23 -80h1026l-164 -231h-1045l-65 229l246 1162l163 231h998l67 -229l-215 -1018h-831l-37 123l53 249l88 123 h332z" />
<glyph unicode="A" horiz-adv-x="1312" d="M584 539h278l-26 520zM872 305h-401l-33 -74l43 -231h-485l186 229l578 1151l-43 242h440l70 -1391l90 -231h-580l142 231z" />
<glyph unicode="B" horiz-adv-x="1310" d="M741 973h328l59 80l54 254l-25 84h-366l22 -84zM1047 666l-25 75h-330l-90 -432l-51 -78h364l56 78zM1317 762l45 -135l-86 -398l-164 -229h-1040l164 229l247 1162l-67 231h1040l68 -229l-64 -303l-94 -132l-211 -100z" />
<glyph unicode="C" horiz-adv-x="1091" d="M1079 346l-71 -346h-811l-68 229l248 1162l164 231h786l-74 -346l-206 115h-279l-63 -84l-211 -998l24 -78h307z" />
<glyph unicode="D" horiz-adv-x="1361" d="M1206 1307l-22 84h-393l22 -84l-211 -998l-51 -78h391l53 78zM72 0l164 229l247 1162l-67 231h1089l68 -229l-248 -1164l-164 -229h-1089z" />
<glyph unicode="E" horiz-adv-x="1169" d="M1456 1622l-74 -346l-206 115h-379l16 -68l-76 -350h117l258 117l-98 -463l-209 114h-117l-94 -448l-39 -62h375l256 117l-74 -348h-1042l166 231l245 1160l-67 231h1042z" />
<glyph unicode="F" horiz-adv-x="1142" d="M1456 1622l-74 -346l-206 115h-383l18 -76l-74 -342h117l258 117l-98 -463l-209 114h-117l-106 -510l67 -231h-579l166 231l245 1160l-67 231h1042z" />
<glyph unicode="G" horiz-adv-x="1216" d="M1321 809l-166 -231l-72 -347l68 -231h-952l-68 229l248 1162l164 231h858l-74 -346l-207 115h-350l-61 -84l-211 -998l22 -78h318l-19 72l58 272l-68 234h512z" />
<glyph unicode="H" horiz-adv-x="1492" d="M1765 1622l-168 -231l-245 -1160l67 -231h-557l166 231l107 510h-465l-107 -510l68 -231h-557l166 231l245 1160l-67 231h559l-168 -231l-90 -418h465l90 418l-68 231h559z" />
<glyph unicode="I" horiz-adv-x="698" d="M983 1622l-166 -231l-246 -1160l66 -231h-580l166 231l246 1160l-68 231h582z" />
<glyph unicode="J" horiz-adv-x="1038" d="M313 231h215l58 78l229 1084l-67 229h579l-166 -225l-248 -1168l-161 -229h-719l71 346z" />
<glyph unicode="K" horiz-adv-x="1449" d="M999 1622l-165 -231l-95 -439l510 670h430l-311 -231l-291 -379l215 -781l158 -231h-606l86 231l-211 619l-131 -619l65 -231h-579l166 231l245 1160l-67 231h581z" />
<glyph unicode="L" horiz-adv-x="1095" d="M995 1622l-168 -231l-233 -1098l-39 -62h330l256 117l-74 -348h-997l166 231l245 1160l-67 231h581z" />
<glyph unicode="M" horiz-adv-x="1681" d="M1952 1622l-168 -231l-246 -1160l66 -231h-486l164 231l152 717l63 211l-545 -1159h-231l-43 1208l-25 -225l-159 -752l67 -231h-487l166 231l245 1160l-67 231h604l20 -709l-8 -208l76 200l352 717h490z" />
<glyph unicode="N" horiz-adv-x="1415" d="M1694 1622l-168 -231l-295 -1391h-254l-354 969l-7 -142l-124 -596l67 -231h-487l166 231l245 1160l-67 231h372l338 -963l21 144l125 588l-68 231h490z" />
<glyph unicode="O" horiz-adv-x="1257" d="M1102 1307l-23 84h-309l-61 -84l-211 -998l22 -78h318l53 78zM199 0l-68 229l248 1162l164 231h858l67 -229l-247 -1164l-164 -229h-858z" />
<glyph unicode="P" horiz-adv-x="1288" d="M711 881h366l56 80l73 346l-22 84h-404l21 -84zM1276 649h-614l-89 -418l66 -231h-567l164 229l247 1162l-67 231h1067l65 -229l-108 -512z" />
<glyph unicode="Q" horiz-adv-x="1224" d="M1077 1307l-24 84h-308l-63 -84l-211 -998l23 -78h317l55 78zM848 0l137 -147l-184 -177l-240 258l70 66h-457l-70 229l248 1162l166 231h858l66 -229l-248 -1164l-162 -229h-184z" />
<glyph unicode="R" horiz-adv-x="1456" d="M723 881h354l56 80l73 346l-22 84h-393l22 -84zM1051 573l-21 76h-356l-137 -649h-465l164 229l247 1162l-67 231h1089l68 -229l-84 -396l-94 -133l-211 -98l162 -96l45 -138l-66 -303l68 -229h-346l-70 227z" />
<glyph unicode="S" horiz-adv-x="1130" d="M1202 698l-98 -467l-166 -231h-856l74 348l206 -117h420l60 84l45 211l-23 76l-502 186l-65 230l80 373l164 231h811l-74 -346l-207 115h-373l-63 -84l-25 -117l25 -78l500 -184z" />
<glyph unicode="T" horiz-adv-x="1142" d="M1339 1174l-184 102l25 115h-142l-245 -1160l67 -231h-579l165 231l246 1160h-139l-25 -115l-229 -102l96 448h1041z" />
<glyph unicode="U" horiz-adv-x="1376" d="M1214 1391l-65 231h510l-166 -229l-248 -1164l-162 -229h-788l-70 229l248 1162l-65 231h579l-166 -231l-229 -1082l22 -78h318l53 78z" />
<glyph unicode="V" horiz-adv-x="1312" d="M1219 1391l-45 231h487l-188 -229l-697 -1393h-278l-68 1391l-90 231h580l-144 -231l33 -678v-197l80 193z" />
<glyph unicode="W" horiz-adv-x="2101" d="M2005 1391l-43 231h487l-188 -229l-696 -1393h-279l-39 823v150l-59 -152l-412 -821h-278l-68 1391l-90 231h580l-144 -231l33 -654v-221l96 221l432 885h232l28 -885v-221l97 223z" />
<glyph unicode="X" horiz-adv-x="1370" d="M948 1622l-94 -231l70 -263l63 101l123 162v231h512l-238 -231l-383 -492l232 -668l137 -231h-579l96 231l-88 273l-23 98l-69 -104l-197 -267v-231h-510l236 231l462 605l-192 555l-139 231h581z" />
<glyph unicode="Y" horiz-adv-x="1327" d="M961 1622l-97 -231l43 -199l21 -111l67 117l125 193v231h512l-235 -231l-377 -551l-129 -609l67 -231h-579l164 231l127 605l-152 555l-139 231h582z" />
<glyph unicode="Z" horiz-adv-x="1128" d="M123 231l782 1086l78 74h-342l-254 -115l74 346h815l67 -231l-770 -1088l-71 -72h368l252 117l-73 -348h-859z" />
<glyph unicode="[" horiz-adv-x="495" d="M453 -119h-394l396 1858h368l-24 -117h-207l-344 -1622h231z" />
<glyph unicode="\" horiz-adv-x="1011" d="M375 1739h203l397 -1856h-189z" />
<glyph unicode="]" horiz-adv-x="497" d="M383 1741h393l-395 -1858h-369l27 117h207l344 1622h-232z" />
<glyph unicode="_" horiz-adv-x="1333" d="M59 -121h1160l-39 -184h-1160z" />
<glyph unicode="`" horiz-adv-x="630" d="M416 1901h301l244 -162h-246z" />
<glyph unicode="a" horiz-adv-x="1067" d="M496 446h190l-18 355zM580 0l116 195v47h-297l-22 -47l39 -195h-420l158 195l454 913l-18 190h350l53 -1103l78 -195h-491z" />
<glyph unicode="b" horiz-adv-x="1085" d="M627 774h237l39 55l43 205l-16 60h-260l14 -52zM838 522l-15 47h-239l-70 -321l-29 -43h260l35 47zM954 672l117 -68l35 -115l-64 -296l-135 -193h-835l137 193l194 911l-57 194h836l55 -192l-53 -256l-74 -109z" />
<glyph unicode="c" d="M887 299l-64 -299h-647l-55 193l194 911l136 194h626l-63 -303l-170 99h-213l-39 -56l-166 -786l16 -47h232l-6 -4z" />
<glyph unicode="d" horiz-adv-x="1126" d="M969 1034l-19 60h-280l14 -52l-170 -794l-29 -43h281l37 47zM72 0l137 193l194 911l-57 194h875l55 -192l-195 -913l-135 -193h-874z" />
<glyph unicode="e" horiz-adv-x="970" d="M1186 1298l-64 -303l-170 99h-278l10 -37l-59 -283h80l210 96l-84 -397l-169 96h-80l-72 -333l-23 -31h281l207 96l-64 -301h-841l139 195l192 909l-57 194h842z" />
<glyph unicode="f" horiz-adv-x="944" d="M1186 1298l-64 -303l-170 99h-280l12 -43l-59 -277h80l210 96l-84 -397l-169 96h-80l-80 -374l55 -195h-487l139 195l192 909l-57 194h842z" />
<glyph unicode="g" horiz-adv-x="1007" d="M1081 659l-139 -196l-57 -268l53 -195h-760l-57 193l194 911l136 194h686l-64 -303l-172 99h-268l-39 -56l-166 -786l14 -47h226l-13 41l45 215l-51 198h432z" />
<glyph unicode="h" horiz-adv-x="1241" d="M1440 1298l-140 -194l-192 -909l53 -195h-469l139 195l80 374h-340l-79 -374l53 -195h-471l139 195l193 909l-58 194h475l-139 -194l-70 -330h340l70 330l-57 194h473z" />
<glyph unicode="i" horiz-adv-x="600" d="M815 1298l-139 -194l-193 -909l54 -195h-478l138 195l192 909l-55 194h481z" />
<glyph unicode="j" horiz-adv-x="858" d="M268 205h162l37 47l180 854l-57 192h487l-139 -190l-195 -915l-135 -193h-573l63 299z" />
<glyph unicode="k" horiz-adv-x="1191" d="M840 1298l-140 -194l-63 -301l375 495h370l-270 -202l-221 -289l166 -610v2l135 -199h-512l74 195l-152 442l-94 -442l53 -195h-487l139 195l193 909l-58 194h492z" />
<glyph unicode="l" d="M834 1298l-142 -194l-184 -868l-21 -31h244l207 96l-64 -301h-804l139 195l192 909l-57 194h490z" />
<glyph unicode="m" horiz-adv-x="1386" d="M1587 1298l-141 -194l-193 -909l58 -195h-418l137 195l98 469l62 198l-399 -862h-201l-23 872l-28 -180l-105 -497l55 -195h-415l139 195l193 909l-58 194h502l16 -544l-8 -136l51 132l267 548h411z" />
<glyph unicode="n" horiz-adv-x="1173" d="M1382 1298l-141 -194l-233 -1104h-217l-259 709v-43l-100 -471l55 -195h-413l139 195l193 909l-58 194h314l247 -720l113 526l-59 194h419z" />
<glyph unicode="o" horiz-adv-x="1038" d="M881 1034l-17 60h-229l-37 -56l-166 -786l12 -47h236l35 47zM180 0l-57 193l194 911l136 194h680l55 -192l-195 -913l-135 -193h-678z" />
<glyph unicode="p" horiz-adv-x="1060" d="M606 727h268l39 51l56 256l-19 60h-293l17 -52zM1038 524h-475l-69 -329l53 -195h-475l137 193l194 911l-57 194h856l55 -192l-81 -389z" />
<glyph unicode="q" horiz-adv-x="1005" d="M854 1036l-14 60h-230l-39 -56l-165 -788l12 -45h237l33 45zM715 0l94 -102l-160 -158l-205 221l45 39h-333l-60 193l195 915l139 195h678l57 -193l-196 -917l-138 -193h-116z" />
<glyph unicode="r" horiz-adv-x="1208" d="M621 727h258l39 51l55 256l-19 60h-280l14 -52zM854 475l-16 49h-260l-111 -524h-393l137 193l195 911l-58 194h877l57 -192l-63 -301l-74 -109l-154 -69l111 -68l39 -117l-54 -249l58 -193h-295l-57 190z" />
<glyph unicode="s" horiz-adv-x="935" d="M975 547l-74 -352l-139 -195h-680l63 303l168 -98h322l39 55l33 154l-17 47l-385 147l-55 189l65 307l136 194h647l-64 -303l-170 99h-286l-39 -56l-23 -106l14 -49l392 -146z" />
<glyph unicode="t" horiz-adv-x="937" d="M1079 918l-164 88l19 88h-88l-191 -899l54 -195h-484l137 195l191 899h-86l-18 -88l-201 -88l80 380h831z" />
<glyph unicode="u" horiz-adv-x="1138" d="M971 1104l-58 194h437l-138 -192l-194 -913l-137 -193h-625l-59 193l194 911l-57 194h489l-137 -194l-180 -852l14 -47h238l33 47z" />
<glyph unicode="v" horiz-adv-x="1067" d="M961 1104l-35 194h420l-160 -194l-549 -1104h-236l-55 1102l-76 196h494l-123 -194l29 -529l-4 -108l45 106z" />
<glyph unicode="w" horiz-adv-x="1697" d="M1589 1104l-35 194h422l-159 -194l-551 -1104h-238l-35 655l2 76l-28 -78l-324 -653h-237l-60 1102l-76 196h496l-119 -194l25 -512v-121l53 121l342 706h203l24 -706v-119l54 121z" />
<glyph unicode="x" horiz-adv-x="1120" d="M784 1298l-77 -194l49 -174l32 51l93 123l4 194h438l-205 -198v2l-297 -385l180 -520v2l119 -199h-491l80 195l-82 260l-37 -56l-154 -204v-195h-436l201 199v-2l360 471l-149 434v-2l-121 198h493z" />
<glyph unicode="y" horiz-adv-x="1103" d="M805 1298l-80 -192l45 -211l35 66l94 145l4 192h438l-202 -198l2 2l-297 -434l-101 -473l54 -195h-486l138 195l100 473l-117 434v-2l-121 198h494z" />
<glyph unicode="z" horiz-adv-x="933" d="M115 195l616 862l39 37h-242l-211 -99l64 303h651l55 -194l-606 -864l-37 -35h267l207 98l-64 -303h-684z" />
<glyph unicode="{" horiz-adv-x="509" d="M344 1012l80 379l330 348h112l-297 -432l-61 -291l-156 -205l70 -203l-64 -293l113 -432h-113l-180 348l80 381l-72 199z" />
<glyph unicode="|" horiz-adv-x="239" d="M459 1855h104l-444 -2086h-105z" />
<glyph unicode="}" horiz-adv-x="509" d="M510 612l-80 -381l-332 -348h-110l295 432l63 293l156 203l-70 205l62 291l-113 432h113l182 -348l-80 -379l72 -201z" />
<glyph unicode="~" horiz-adv-x="878" d="M205 795l244 153l323 -147l250 149l-27 -127l-239 -151l-322 151l-256 -153z" />
<glyph unicode="&#xa1;" horiz-adv-x="546" d="M438 1577l54 45h260l34 -43l-47 -229l-65 -52h-252l-33 43zM143 0l-39 139l60 279l274 741h162l-41 -741l-59 -279l-99 -139h-258z" />
<glyph unicode="&#xa2;" d="M500 479h73l191 891h-74l-39 -55l-168 -787zM530 276h-297l-53 193l195 911l135 195h297l59 280h105l-60 -280h248l-65 -305l-168 100h-58l-190 -891h76l213 96l-64 -299h-268l-51 -241h-105z" />
<glyph unicode="&#xa3;" horiz-adv-x="1038" d="M197 928h147l98 465l166 229h719l-74 -344l-206 113h-216l-57 -76l-82 -387h121l266 114l-98 -462l-213 116h-125l-100 -469h354l260 236l-98 -463h-1026l162 227l100 469h-148z" />
<glyph unicode="&#xa5;" horiz-adv-x="1327" d="M434 860h228l-144 531l-139 231h582l-97 -231l43 -199l21 -111l67 117l125 193v231h512l-235 -231l-365 -531h254l-37 -174h-262l-39 -176h262l-36 -176h-263l-20 -103l67 -231h-579l164 231l20 103h-241l36 176h242l39 176h-242z" />
<glyph unicode="&#xa7;" horiz-adv-x="1021" d="M897 874l-143 58h-242l-37 -55l-16 -84l12 -50l141 -53h240l43 58l18 81zM1182 965l-62 -283l-139 -195h-88l22 -79l-45 -213l-137 -195h-682l64 303l170 -98h319l41 55l4 14l-18 48l-387 147l-54 190l60 283l135 195h90l-20 77l45 213l137 195h645l-65 -303l-166 100 h-289l-37 -55l-2 -14l10 -50l391 -145z" />
<glyph unicode="&#xa8;" horiz-adv-x="667" d="M1006 1786l-56 -47h-143l-35 45l19 90l63 51h135l37 -45zM657 1786l-55 -47h-143l-33 45l18 90l64 51h133l37 -45z" />
<glyph unicode="&#xa9;" horiz-adv-x="1472" d="M229 643q29 133 105 250t182.5 205t234.5 138t261 50q117 0 212 -39t164.5 -107.5t107.5 -161.5t38 -202q0 -154 -68.5 -295t-181.5 -248.5t-256 -171t-291 -63.5q-117 0 -212 39t-164.5 107.5t-107.5 162.5t-38 203q0 70 14 133zM307 639q-12 -61 -12 -119 q0 -96 33.5 -178t94 -142.5t145.5 -95t188 -34.5q133 0 260 56t226 151.5t159.5 220.5t60.5 262q0 98 -33.5 181t-94 143.5t-145.5 95t-190 34.5q-117 0 -230.5 -45t-207.5 -123.5t-161.5 -183t-92.5 -223.5zM1047 803q-43 82 -129 82q-43 0 -86.5 -22.5t-78 -65.5 t-56 -104.5t-21.5 -137.5q0 -78 36 -125t101 -47q39 0 81 19.5t79 52.5l98 -80q-119 -143 -291 -144q-117 0 -184.5 82t-67.5 211q0 106 35 199.5t93.5 163t134 109.5t159.5 40q182 0 234 -155z" />
<glyph unicode="&#xab;" horiz-adv-x="919" d="M1010 610l-41 -192l-375 278l49 232l494 278l-41 -186l-365 -201zM592 610l-41 -192l-373 278l49 232l492 278l-41 -186l-365 -201z" />
<glyph unicode="&#xad;" d="M283 928h735l-49 -232h-736z" />
<glyph unicode="&#xae;" horiz-adv-x="1251" d="M885 1214q-117 0 -211 -45t-162 -115.5t-104.5 -155.5t-36.5 -163q0 -63 22.5 -120.5t65.5 -100.5t107.5 -68.5t148.5 -25.5q94 0 190 36t174 99t126 147t48 181q0 63 -24.5 123.5t-71.5 106.5t-115.5 73.5t-156.5 27.5zM698 330q-98 0 -177 30.5t-134 84t-85 124 t-30 152.5q0 113 51.5 219.5t138.5 188t202.5 132t242.5 50.5q98 0 179 -30t137.5 -82t87 -123.5t30.5 -155.5q0 -113 -53 -218.5t-142 -188.5t-205 -133t-243 -50zM774 969l-26 -121h90q31 0 51 20.5t20 59.5q0 41 -45 41h-90zM782 739h-57l-41 -194h-102l112 530h189 q63 0 99 -31.5t36 -91.5q0 -72 -34 -116.5t-91 -79.5l49 -211h-111z" />
<glyph unicode="&#xaf;" horiz-adv-x="749" d="M1067 1739h-647l35 159h647z" />
<glyph unicode="&#xb0;" horiz-adv-x="460" d="M655 1493l-4 31h-207l-18 -29l-39 -180l8 -23h209l14 23zM334 1192l-29 92l51 244l66 94h291l28 -94l-51 -244l-69 -92h-287z" />
<glyph unicode="&#xb2;" horiz-adv-x="681" d="M795 1686l-7 32h-213l-174 -86l58 266h512l47 -161l-39 -178l-416 -498l-26 -21h174l176 84l-56 -264h-624l35 164z" />
<glyph unicode="&#xb3;" horiz-adv-x="700" d="M293 1120l141 -80h156l20 29l39 182l-8 37h-160l39 182h162l20 27l39 182l-8 39h-155l-177 -86l58 266h495l47 -161l-61 -291l-55 -76l26 -53l-63 -297l-115 -160h-495z" />
<glyph unicode="&#xb4;" horiz-adv-x="600" d="M631 1739h-244l313 162h301z" />
<glyph unicode="&#xb6;" horiz-adv-x="1306" d="M682 793l-20 8l18 8h-404v29l54 59l141 -23l215 -65l74 27l-238 75l-102 154l158 158l153 -103l78 -237l25 75l-64 213l-22 142l61 53h27v-405l8 20l30 -98l80 237l154 103l158 -158l-103 -154l-237 -75l73 -27l215 63l142 23l53 -59v-29h-405l20 -6l-20 -10l-5 2 l-73 -25l237 -80l103 -151l-158 -158l-154 100l-80 238l-24 -74l65 -215l23 -141l-61 -54h-27v406l-6 -21l-10 19v-404h-29l-60 54l23 141l66 215l-25 74l-78 -238l-153 -100l-158 158l102 151l238 80l-74 25l-215 -66l-141 -22l-54 61v27h406zM1006 791h403v-29l-53 -60 l-142 23zM852 965v401h29l59 -53l-22 -142zM434 651l-78 -108h-112l69 96zM991 391l109 -78v-112l-96 69zM694 1208l-108 78v113l96 -70zM1251 948l78 109h113l-70 -96zM313 961l-69 98l112 -4l78 -107zM1004 1329l98 70l-4 -113l-107 -78zM682 270l-98 -69l4 112l106 78z M1372 639l70 -98l-113 4l-78 106zM936 893l25 8l116 121l2 14l-14 -2l-121 -116zM1065 565l14 -2l-2 15l-116 120l-25 9l8 -25zM606 1036l2 -14l117 -121l23 -8l-7 25l-120 116zM741 682l7 23l-23 -7l-117 -120l-2 -15l15 2zM850 963l2 2v-4z" />
<glyph unicode="&#xb8;" horiz-adv-x="485" d="M362 -250l-229 -219h-119l138 150l8 34h-109l-37 33l35 158l62 39h249l35 -35z" />
<glyph unicode="&#xb9;" horiz-adv-x="456" d="M782 1898l-186 -870l41 -168h-391l110 162l117 551h-111l37 178l117 47l57 100h209z" />
<glyph unicode="&#xbb;" horiz-adv-x="927" d="M659 1014l41 192l375 -278l-49 -232l-494 -278l39 184l369 203zM244 1014l41 192l372 -278l-49 -232l-491 -278l39 184l366 203z" />
<glyph unicode="&#xbc;" horiz-adv-x="1921" d="M1821 1622h280l-1677 -1622h-295zM1569 387l22 162l-141 -162h119zM905 1622l-145 -684l41 -145h-375l100 137l88 418h-90l35 157l96 39l45 78h205zM1704 829h262l-104 -137l-64 -305h80l-37 -166h-80l-16 -84l43 -137h-377l105 137l16 84h-203l-37 152z" />
<glyph unicode="&#xbd;" horiz-adv-x="2103" d="M1952 1622h280l-1792 -1622h-295zM948 1622l-145 -684l43 -145h-377l100 137l88 418h-90l35 157l96 39l47 78h203zM1812 651l-4 17h-170l-159 -74l51 235h442l47 -137l-28 -141l-344 -389h108l168 69l-49 -231h-543l29 141z" />
<glyph unicode="&#xbe;" horiz-adv-x="2041" d="M1939 1622h281l-1800 -1622h-295zM1536 387l35 164l-158 -164h123zM645 954l10 13l31 145l-8 14h-137l34 162h140l10 12l31 144l-6 16h-123l-160 -74l51 236h430l47 -135l-49 -227l-47 -56l27 -39l-49 -237l-105 -135h-430l49 231l127 -70h127zM1671 829h262l-104 -137 l-64 -305h82l-37 -166h-81l-17 -84l43 -137h-375l103 137l16 84h-203l-36 152z" />
<glyph unicode="&#xbf;" horiz-adv-x="1028" d="M741 1577l56 45h260l33 -43l-48 -229l-65 -52h-250l-35 43zM784 795l-266 -97l-55 -77l-66 -306l27 -84h375l256 117l-74 -348h-811l-68 231l99 469l166 230l266 98l55 80l-26 84h323l-35 -168z" />
<glyph unicode="&#xc0;" horiz-adv-x="1312" d="M0 0zM584 539h278l-26 520zM872 305h-401l-33 -74l43 -231h-485l186 229l578 1151l-43 242h440l70 -1391l90 -231h-580l142 231zM668 1901h301l244 -162h-246z" />
<glyph unicode="&#xc1;" horiz-adv-x="1312" d="M0 0zM584 539h278l-26 520zM872 305h-401l-33 -74l43 -231h-485l186 229l578 1151l-43 242h440l70 -1391l90 -231h-580l142 231zM1082 1739h-244l313 162h301z" />
<glyph unicode="&#xc2;" horiz-adv-x="1312" d="M0 0zM584 539h278l-26 520zM872 305h-401l-33 -74l43 -231h-485l186 229l578 1151l-43 242h440l70 -1391l90 -231h-580l142 231zM932 1739h-248l303 188h232l253 -188h-284l-105 125z" />
<glyph unicode="&#xc3;" horiz-adv-x="1312" d="M0 0zM584 539h278l-26 520zM872 305h-401l-33 -74l43 -231h-485l186 229l578 1151l-43 242h440l70 -1391l90 -231h-580l142 231zM668 1827l225 141l303 -137l232 139l-25 -117l-223 -139l-299 139l-238 -143z" />
<glyph unicode="&#xc4;" horiz-adv-x="1312" d="M0 0zM584 539h278l-26 520zM872 305h-401l-33 -74l43 -231h-485l186 229l578 1151l-43 242h440l70 -1391l90 -231h-580l142 231zM1340 1786l-56 -47h-143l-35 45l19 90l63 51h135l37 -45zM991 1786l-55 -47h-143l-33 45l18 90l64 51h133l37 -45z" />
<glyph unicode="&#xc5;" horiz-adv-x="1312" d="M0 0zM584 539h278l-26 520zM872 305h-401l-33 -74l43 -231h-485l186 229l578 1151l-43 242h440l70 -1391l90 -231h-580l142 231zM1133 1860l-9 30h-112l-19 -28l-18 -86l6 -23h117l16 23zM922 1653l-29 92l31 149l67 95h197l28 -95l-30 -149l-70 -92h-194z" />
<glyph unicode="&#xc6;" horiz-adv-x="1558" d="M606 539h189l108 503zM745 305h-256l-51 -74l43 -231h-485l186 229l791 1393h835l-73 -346l-207 115h-240l17 -68l-84 -395h94l256 114l-98 -462l-207 116h-95l-86 -403l-38 -62h235l256 117l-74 -348h-901l168 231z" />
<glyph unicode="&#xc7;" horiz-adv-x="1091" d="M129 0zM1079 346l-71 -346h-811l-68 229l248 1162l164 231h786l-74 -346l-206 115h-279l-63 -84l-211 -998l24 -78h307zM778 -250l-229 -219h-119l138 150l8 34h-109l-37 33l35 158l62 39h249l35 -35z" />
<glyph unicode="&#xc8;" horiz-adv-x="1169" d="M70 0zM1456 1622l-74 -346l-206 115h-379l16 -68l-76 -350h117l258 117l-98 -463l-209 114h-117l-94 -448l-39 -62h375l256 117l-74 -348h-1042l166 231l245 1160l-67 231h1042zM656 1901h301l244 -162h-246z" />
<glyph unicode="&#xc9;" horiz-adv-x="1169" d="M70 0zM1456 1622l-74 -346l-206 115h-379l16 -68l-76 -350h117l258 117l-98 -463l-209 114h-117l-94 -448l-39 -62h375l256 117l-74 -348h-1042l166 231l245 1160l-67 231h1042zM961 1739h-244l313 162h301z" />
<glyph unicode="&#xca;" horiz-adv-x="1169" d="M70 0zM1456 1622l-74 -346l-206 115h-379l16 -68l-76 -350h117l258 117l-98 -463l-209 114h-117l-94 -448l-39 -62h375l256 117l-74 -348h-1042l166 231l245 1160l-67 231h1042zM846 1739h-248l303 188h232l253 -188h-284l-105 125z" />
<glyph unicode="&#xcb;" horiz-adv-x="1169" d="M70 0zM1456 1622l-74 -346l-206 115h-379l16 -68l-76 -350h117l258 117l-98 -463l-209 114h-117l-94 -448l-39 -62h375l256 117l-74 -348h-1042l166 231l245 1160l-67 231h1042zM1282 1786l-56 -47h-143l-35 45l19 90l63 51h135l37 -45zM933 1786l-55 -47h-143l-33 45 l18 90l64 51h133l37 -45z" />
<glyph unicode="&#xcc;" horiz-adv-x="698" d="M57 0zM983 1622l-166 -231l-246 -1160l66 -231h-580l166 231l246 1160l-68 231h582zM361 1901h301l244 -162h-246z" />
<glyph unicode="&#xcd;" horiz-adv-x="698" d="M57 0zM983 1622l-166 -231l-246 -1160l66 -231h-580l166 231l246 1160l-68 231h582zM805 1739h-244l313 162h301z" />
<glyph unicode="&#xce;" horiz-adv-x="698" d="M57 0zM983 1622l-166 -231l-246 -1160l66 -231h-580l166 231l246 1160l-68 231h582zM586 1739h-248l303 188h232l253 -188h-284l-105 125z" />
<glyph unicode="&#xcf;" horiz-adv-x="698" d="M57 0zM983 1622l-166 -231l-246 -1160l66 -231h-580l166 231l246 1160l-68 231h582zM1006 1786l-56 -47h-143l-35 45l19 90l63 51h135l37 -45zM657 1786l-55 -47h-143l-33 45l18 90l64 51h133l37 -45z" />
<glyph unicode="&#xd0;" horiz-adv-x="1361" d="M283 928h102l98 463l-67 231h1089l68 -229l-248 -1164l-164 -229h-1089l164 229l100 467h-103zM1206 1307l-22 84h-393l22 -84l-80 -379h285l-49 -232h-285l-82 -387l-51 -78h391l53 78z" />
<glyph unicode="&#xd1;" horiz-adv-x="1415" d="M72 0zM1694 1622l-168 -231l-295 -1391h-254l-354 969l-7 -142l-124 -596l67 -231h-487l166 231l245 1160l-67 231h372l338 -963l21 144l125 588l-68 231h490zM727 1827l225 141l303 -137l232 139l-25 -117l-223 -139l-299 139l-238 -143z" />
<glyph unicode="&#xd2;" horiz-adv-x="1257" d="M131 0zM1102 1307l-23 84h-309l-61 -84l-211 -998l22 -78h318l53 78zM199 0l-68 229l248 1162l164 231h858l67 -229l-247 -1164l-164 -229h-858zM611 1901h301l244 -162h-246z" />
<glyph unicode="&#xd3;" horiz-adv-x="1257" d="M131 0zM1102 1307l-23 84h-309l-61 -84l-211 -998l22 -78h318l53 78zM199 0l-68 229l248 1162l164 231h858l67 -229l-247 -1164l-164 -229h-858zM1037 1739h-244l313 162h301z" />
<glyph unicode="&#xd4;" horiz-adv-x="1257" d="M131 0zM1102 1307l-23 84h-309l-61 -84l-211 -998l22 -78h318l53 78zM199 0l-68 229l248 1162l164 231h858l67 -229l-247 -1164l-164 -229h-858zM854 1739h-248l303 188h232l253 -188h-284l-105 125z" />
<glyph unicode="&#xd5;" horiz-adv-x="1257" d="M131 0zM1102 1307l-23 84h-309l-61 -84l-211 -998l22 -78h318l53 78zM199 0l-68 229l248 1162l164 231h858l67 -229l-247 -1164l-164 -229h-858zM657 1827l225 141l303 -137l232 139l-25 -117l-223 -139l-299 139l-238 -143z" />
<glyph unicode="&#xd6;" horiz-adv-x="1257" d="M131 0zM1102 1307l-23 84h-309l-61 -84l-211 -998l22 -78h318l53 78zM199 0l-68 229l248 1162l164 231h858l67 -229l-247 -1164l-164 -229h-858zM1301 1786l-56 -47h-143l-35 45l19 90l63 51h135l37 -45zM952 1786l-55 -47h-143l-33 45l18 90l64 51h133l37 -45z" />
<glyph unicode="&#xd7;" horiz-adv-x="1103" d="M526 1270l232 -293l360 297l129 -166l-358 -297l231 -295l-200 -164l-232 295l-356 -295l-131 164l358 295l-233 295z" />
<glyph unicode="&#xd8;" horiz-adv-x="1257" d="M94 0zM1102 1307l-23 84h-309l-61 -84l-211 -998l22 -78h318l53 78zM199 0l-68 229l248 1162l164 231h858l67 -229l-247 -1164l-164 -229h-858zM1295 1739h188l-1188 -1856h-200z" />
<glyph unicode="&#xd9;" horiz-adv-x="1376" d="M225 0zM1214 1391l-65 231h510l-166 -229l-248 -1164l-162 -229h-788l-70 229l248 1162l-65 231h579l-166 -231l-229 -1082l22 -78h318l53 78zM684 1901h301l244 -162h-246z" />
<glyph unicode="&#xda;" horiz-adv-x="1376" d="M225 0zM1214 1391l-65 231h510l-166 -229l-248 -1164l-162 -229h-788l-70 229l248 1162l-65 231h579l-166 -231l-229 -1082l22 -78h318l53 78zM1118 1739h-244l313 162h301z" />
<glyph unicode="&#xdb;" horiz-adv-x="1376" d="M225 0zM1214 1391l-65 231h510l-166 -229l-248 -1164l-162 -229h-788l-70 229l248 1162l-65 231h579l-166 -231l-229 -1082l22 -78h318l53 78zM967 1739h-248l303 188h232l253 -188h-284l-105 125z" />
<glyph unicode="&#xdc;" horiz-adv-x="1376" d="M225 0zM1214 1391l-65 231h510l-166 -229l-248 -1164l-162 -229h-788l-70 229l248 1162l-65 231h579l-166 -231l-229 -1082l22 -78h318l53 78zM1391 1786l-56 -47h-143l-35 45l19 90l63 51h135l37 -45zM1042 1786l-55 -47h-143l-33 45l18 90l64 51h133l37 -45z" />
<glyph unicode="&#xdd;" horiz-adv-x="1327" d="M379 0zM961 1622l-97 -231l43 -199l21 -111l67 117l125 193v231h512l-235 -231l-377 -551l-129 -609l67 -231h-579l164 231l127 605l-152 555l-139 231h582zM1006 1739h-244l313 162h301z" />
<glyph unicode="&#xde;" horiz-adv-x="1095" d="M930 926l-17 59h-182l-90 -426h186l35 49zM596 354l-25 -123l66 -231h-580l166 231l246 1160l-68 231h582l-166 -231l-43 -201h408l57 -193l-96 -450l-139 -193h-408z" />
<glyph unicode="&#xdf;" horiz-adv-x="1847" d="M82 0zM975 547l-74 -352l-139 -195h-680l63 303l168 -98h322l39 55l33 154l-17 47l-385 147l-55 189l65 307l136 194h647l-64 -303l-170 99h-286l-39 -56l-23 -106l14 -49l392 -146zM1886 547l-74 -352l-139 -195h-680l63 303l168 -98h322l39 55l33 154l-17 47l-385 147 l-55 189l65 307l136 194h647l-64 -303l-170 99h-286l-39 -56l-23 -106l14 -49l392 -146z" />
<glyph unicode="&#xe0;" horiz-adv-x="1067" d="M0 0zM496 446h190l-18 355zM580 0l116 195v47h-297l-22 -47l39 -195h-420l158 195l454 913l-18 190h350l53 -1103l78 -195h-491zM471 1563h301l244 -162h-246z" />
<glyph unicode="&#xe1;" horiz-adv-x="1067" d="M0 0zM496 446h190l-18 355zM580 0l116 195v47h-297l-22 -47l39 -195h-420l158 195l454 913l-18 190h350l53 -1103l78 -195h-491zM834 1401h-244l313 162h301z" />
<glyph unicode="&#xe2;" horiz-adv-x="1067" d="M0 0zM496 446h190l-18 355zM580 0l116 195v47h-297l-22 -47l39 -195h-420l158 195l454 913l-18 190h350l53 -1103l78 -195h-491zM711 1401h-248l303 188h232l253 -188h-284l-105 125z" />
<glyph unicode="&#xe3;" horiz-adv-x="1067" d="M0 0zM496 446h190l-18 355zM580 0l116 195v47h-297l-22 -47l39 -195h-420l158 195l454 913l-18 190h350l53 -1103l78 -195h-491zM477 1489l225 141l303 -137l232 139l-25 -117l-223 -139l-299 139l-238 -143z" />
<glyph unicode="&#xe4;" horiz-adv-x="1067" d="M0 0zM496 446h190l-18 355zM580 0l116 195v47h-297l-22 -47l39 -195h-420l158 195l454 913l-18 190h350l53 -1103l78 -195h-491zM1143 1448l-56 -47h-143l-35 45l19 90l63 51h135l37 -45zM794 1448l-55 -47h-143l-33 45l18 90l64 51h133l37 -45z" />
<glyph unicode="&#xe5;" horiz-adv-x="1067" d="M0 0zM496 446h190l-18 355zM580 0l116 195v47h-297l-22 -47l39 -195h-420l158 195l454 913l-18 190h350l53 -1103l78 -195h-491zM941 1522l-9 30h-112l-19 -28l-18 -86l6 -23h117l16 23zM730 1315l-29 92l31 149l67 95h197l28 -95l-30 -149l-70 -92h-194z" />
<glyph unicode="&#xe6;" horiz-adv-x="1224" d="M627 446l67 320l-186 -320h119zM584 242h-183l-32 -47l39 -195h-422l161 197l-2 -2l625 1103h678l-64 -303l-172 99h-176l15 -41l-64 -301h62l213 94l-84 -395l-174 96h-62l-65 -311l-23 -31h170l213 96l-63 -301h-740l139 195z" />
<glyph unicode="&#xe7;" d="M121 0zM887 299l-64 -299h-647l-55 193l194 911l136 194h626l-63 -303l-170 99h-213l-39 -56l-166 -786l16 -47h232l-6 -4zM655 -250l-229 -219h-119l138 150l8 34h-109l-37 33l35 158l62 39h249l35 -35z" />
<glyph unicode="&#xe8;" horiz-adv-x="970" d="M70 0zM1186 1298l-64 -303l-170 99h-278l10 -37l-59 -283h80l210 96l-84 -397l-169 96h-80l-72 -333l-23 -31h281l207 96l-64 -301h-841l139 195l192 909l-57 194h842zM449 1563h301l244 -162h-246z" />
<glyph unicode="&#xe9;" horiz-adv-x="970" d="M70 0zM1186 1298l-64 -303l-170 99h-278l10 -37l-59 -283h80l210 96l-84 -397l-169 96h-80l-72 -333l-23 -31h281l207 96l-64 -301h-841l139 195l192 909l-57 194h842zM791 1401h-244l313 162h301z" />
<glyph unicode="&#xea;" horiz-adv-x="970" d="M70 0zM1186 1298l-64 -303l-170 99h-278l10 -37l-59 -283h80l210 96l-84 -397l-169 96h-80l-72 -333l-23 -31h281l207 96l-64 -301h-841l139 195l192 909l-57 194h842zM651 1401h-248l303 188h232l253 -188h-284l-105 125z" />
<glyph unicode="&#xeb;" horiz-adv-x="970" d="M70 0zM1186 1298l-64 -303l-170 99h-278l10 -37l-59 -283h80l210 96l-84 -397l-169 96h-80l-72 -333l-23 -31h281l207 96l-64 -301h-841l139 195l192 909l-57 194h842zM1106 1448l-56 -47h-143l-35 45l19 90l63 51h135l37 -45zM757 1448l-55 -47h-143l-33 45l18 90l64 51 h133l37 -45z" />
<glyph unicode="&#xec;" horiz-adv-x="600" d="M59 0zM815 1298l-139 -194l-193 -909l54 -195h-478l138 195l192 909l-55 194h481zM279 1563h301l244 -162h-246z" />
<glyph unicode="&#xed;" horiz-adv-x="600" d="M59 0zM815 1298l-139 -194l-193 -909l54 -195h-478l138 195l192 909l-55 194h481zM621 1401h-244l313 162h301z" />
<glyph unicode="&#xee;" horiz-adv-x="600" d="M59 0zM815 1298l-139 -194l-193 -909l54 -195h-478l138 195l192 909l-55 194h481zM477 1401h-248l303 188h232l253 -188h-284l-105 125z" />
<glyph unicode="&#xef;" horiz-adv-x="600" d="M59 0zM815 1298l-139 -194l-193 -909l54 -195h-478l138 195l192 909l-55 194h481zM912 1448l-56 -47h-143l-35 45l19 90l63 51h135l37 -45zM563 1448l-55 -47h-143l-33 45l18 90l64 51h133l37 -45z" />
<glyph unicode="&#xf0;" horiz-adv-x="1126" d="M225 786h111l67 318l-57 194h875l55 -192l-195 -913l-135 -193h-874l137 193l76 348h-111zM969 1034l-19 60h-280l14 -52l-55 -256h209l-52 -245h-208l-64 -293l-29 -43h281l37 47z" />
<glyph unicode="&#xf1;" horiz-adv-x="1173" d="M74 0zM1382 1298l-141 -194l-233 -1104h-217l-259 709v-43l-100 -471l55 -195h-413l139 195l193 909l-58 194h314l247 -720l113 526l-59 194h419zM528 1489l225 141l303 -137l232 139l-25 -117l-223 -139l-299 139l-238 -143z" />
<glyph unicode="&#xf2;" horiz-adv-x="1038" d="M123 0zM881 1034l-17 60h-229l-37 -56l-166 -786l12 -47h236l35 47zM180 0l-57 193l194 911l136 194h680l55 -192l-195 -913l-135 -193h-678zM451 1563h301l244 -162h-246z" />
<glyph unicode="&#xf3;" horiz-adv-x="1038" d="M123 0zM881 1034l-17 60h-229l-37 -56l-166 -786l12 -47h236l35 47zM180 0l-57 193l194 911l136 194h680l55 -192l-195 -913l-135 -193h-678zM807 1401h-244l313 162h301z" />
<glyph unicode="&#xf4;" horiz-adv-x="1038" d="M123 0zM881 1034l-17 60h-229l-37 -56l-166 -786l12 -47h236l35 47zM180 0l-57 193l194 911l136 194h680l55 -192l-195 -913l-135 -193h-678zM680 1401h-248l303 188h232l253 -188h-284l-105 125z" />
<glyph unicode="&#xf5;" horiz-adv-x="1038" d="M123 0zM881 1034l-17 60h-229l-37 -56l-166 -786l12 -47h236l35 47zM180 0l-57 193l194 911l136 194h680l55 -192l-195 -913l-135 -193h-678zM475 1489l225 141l303 -137l232 139l-25 -117l-223 -139l-299 139l-238 -143z" />
<glyph unicode="&#xf6;" horiz-adv-x="1038" d="M123 0zM881 1034l-17 60h-229l-37 -56l-166 -786l12 -47h236l35 47zM180 0l-57 193l194 911l136 194h680l55 -192l-195 -913l-135 -193h-678zM1106 1448l-56 -47h-143l-35 45l19 90l63 51h135l37 -45zM757 1448l-55 -47h-143l-33 45l18 90l64 51h133l37 -45z" />
<glyph unicode="&#xf7;" d="M852 1067l-55 -47h-260l-33 45l49 229l63 52h250l35 -46zM694 324l-55 -45h-260l-33 43l49 229l64 51h250l36 -43zM283 928h735l-49 -232h-736z" />
<glyph unicode="&#xf8;" horiz-adv-x="1038" d="M172 25l-49 168l194 911l136 194h542l45 68h144l-49 -76l53 -184l-195 -913l-135 -193h-549l-37 -57h-153zM836 821l-394 -612l2 -4h236l35 47zM485 510l379 584h-229l-37 -56z" />
<glyph unicode="&#xf9;" horiz-adv-x="1138" d="M197 0zM971 1104l-58 194h437l-138 -192l-194 -913l-137 -193h-625l-59 193l194 911l-57 194h489l-137 -194l-180 -852l14 -47h238l33 47zM486 1563h301l244 -162h-246z" />
<glyph unicode="&#xfa;" horiz-adv-x="1138" d="M197 0zM971 1104l-58 194h437l-138 -192l-194 -913l-137 -193h-625l-59 193l194 911l-57 194h489l-137 -194l-180 -852l14 -47h238l33 47zM871 1401h-244l313 162h301z" />
<glyph unicode="&#xfb;" horiz-adv-x="1138" d="M197 0zM971 1104l-58 194h437l-138 -192l-194 -913l-137 -193h-625l-59 193l194 911l-57 194h489l-137 -194l-180 -852l14 -47h238l33 47zM756 1401h-248l303 188h232l253 -188h-284l-105 125z" />
<glyph unicode="&#xfc;" horiz-adv-x="1138" d="M197 0zM971 1104l-58 194h437l-138 -192l-194 -913l-137 -193h-625l-59 193l194 911l-57 194h489l-137 -194l-180 -852l14 -47h238l33 47zM1184 1448l-56 -47h-143l-35 45l19 90l63 51h135l37 -45zM835 1448l-55 -47h-143l-33 45l18 90l64 51h133l37 -45z" />
<glyph unicode="&#xfd;" horiz-adv-x="1103" d="M311 0zM805 1298l-80 -192l45 -211l35 66l94 145l4 192h438l-202 -198l2 2l-297 -434l-101 -473l54 -195h-486l138 195l100 473l-117 434v-2l-121 198h494zM852 1401h-244l313 162h301z" />
<glyph unicode="&#xfe;" horiz-adv-x="874" d="M713 774h-123l-68 -313h129l23 33l51 239zM483 279l-16 -84l55 -195h-483l137 195l193 909l-56 194h488l-142 -194l-30 -146h311l47 -163l-76 -353l-114 -163h-314z" />
<glyph unicode="&#xff;" horiz-adv-x="1103" d="M311 0zM805 1298l-80 -192l45 -211l35 66l94 145l4 192h438l-202 -198l2 2l-297 -434l-101 -473l54 -195h-486l138 195l100 473l-117 434v-2l-121 198h494zM1162 1448l-56 -47h-143l-35 45l19 90l63 51h135l37 -45zM813 1448l-55 -47h-143l-33 45l18 90l64 51h133l37 -45 z" />
<glyph unicode="&#x152;" horiz-adv-x="1630" d="M1010 1307l-25 84h-215l-61 -84l-211 -998l22 -78h225l54 78zM1917 1622l-74 -346l-209 115h-286l18 -68l-84 -395h115l258 114l-99 -462l-208 116h-115l-86 -403l-41 -62h283l258 117l-74 -348h-1374l-68 229l248 1162l164 231h1374z" />
<glyph unicode="&#x153;" horiz-adv-x="1277" d="M1528 1298l-64 -303l-172 99h-205l11 -37l-64 -305h78l211 94l-84 -395l-172 96h-78l-65 -311l-21 -31h201l-6 -4l219 100l-64 -301h-1089l-60 193l195 911l137 194h1092zM795 1038l-19 56h-155l-39 -56l-166 -786l12 -47h164l37 47z" />
<glyph unicode="&#x178;" horiz-adv-x="1327" d="M379 0zM961 1622l-97 -231l43 -199l21 -111l67 117l125 193v231h512l-235 -231l-377 -551l-129 -609l67 -231h-579l164 231l127 605l-152 555l-139 231h582zM1360 1786l-56 -47h-143l-35 45l19 90l63 51h135l37 -45zM1011 1786l-55 -47h-143l-33 45l18 90l64 51h133 l37 -45z" />
<glyph unicode="&#x2c6;" horiz-adv-x="993" d="M717 1739h-248l303 188h232l253 -188h-284l-105 125z" />
<glyph unicode="&#x2da;" horiz-adv-x="385" d="M662 1860l-9 30h-112l-19 -28l-18 -86l6 -23h117l16 23zM451 1653l-29 92l31 149l67 95h197l28 -95l-30 -149l-70 -92h-194z" />
<glyph unicode="&#x2dc;" horiz-adv-x="819" d="M424 1827l225 141l303 -137l232 139l-25 -117l-223 -139l-299 139l-238 -143z" />
<glyph unicode="&#x2000;" horiz-adv-x="994" />
<glyph unicode="&#x2001;" horiz-adv-x="1989" />
<glyph unicode="&#x2002;" horiz-adv-x="994" />
<glyph unicode="&#x2003;" horiz-adv-x="1989" />
<glyph unicode="&#x2004;" horiz-adv-x="663" />
<glyph unicode="&#x2005;" horiz-adv-x="497" />
<glyph unicode="&#x2006;" horiz-adv-x="331" />
<glyph unicode="&#x2007;" horiz-adv-x="331" />
<glyph unicode="&#x2008;" horiz-adv-x="248" />
<glyph unicode="&#x2009;" horiz-adv-x="397" />
<glyph unicode="&#x200a;" horiz-adv-x="110" />
<glyph unicode="&#x2010;" d="M283 928h735l-49 -232h-736z" />
<glyph unicode="&#x2011;" d="M283 928h735l-49 -232h-736z" />
<glyph unicode="&#x2012;" d="M283 928h735l-49 -232h-736z" />
<glyph unicode="&#x2013;" horiz-adv-x="1138" d="M283 928h962l-49 -232h-963z" />
<glyph unicode="&#x2014;" horiz-adv-x="1540" d="M283 928h1388l-49 -232h-1389z" />
<glyph unicode="&#x2018;" horiz-adv-x="415" d="M348 1460l244 279h117l-148 -191l-8 -41h111l32 -45l-41 -196l-63 -52h-250l-37 46z" />
<glyph unicode="&#x2019;" horiz-adv-x="419" d="M674 1376l-242 -276h-117l146 188l10 43h-111l-34 43l43 199l63 49h250l35 -43z" />
<glyph unicode="&#x201a;" horiz-adv-x="460" d="M426 78l-242 -277h-118l145 189l10 43h-108l-35 43l43 198l63 50h250l35 -43z" />
<glyph unicode="&#x201c;" horiz-adv-x="866" d="M342 1460l242 279h118l-147 -191l-8 -41h108l35 -45l-41 -196l-63 -52h-252l-35 46zM782 1460l242 279h119l-148 -191l-8 -41h109l34 -45l-40 -196l-64 -52h-252l-35 46z" />
<glyph unicode="&#x201d;" horiz-adv-x="847" d="M1110 1376l-242 -276h-118l147 188l10 43h-110l-35 43l43 199l63 49h250l35 -43zM670 1376l-242 -276h-119l146 188l10 43h-109l-34 43l43 199l63 49h250l35 -43z" />
<glyph unicode="&#x201e;" horiz-adv-x="937" d="M866 78l-241 -277h-119l145 189l11 43h-109l-35 43l43 198l64 50h249l35 -43zM426 78l-242 -277h-118l145 189l10 43h-108l-35 43l43 198l63 50h250l35 -43z" />
<glyph unicode="&#x2022;" horiz-adv-x="821" d="M887 578l-113 -97h-526l-70 92l98 465l134 103h505l74 -88z" />
<glyph unicode="&#x2026;" horiz-adv-x="3342" d="M541 0zM887 47l-51 -47h-260l-35 45l49 229l64 50h250l34 -43zM1851 47l-51 -47h-260l-35 45l49 229l64 50h250l34 -43zM2816 47l-51 -47h-260l-35 45l49 229l64 50h250l34 -43z" />
<glyph unicode="&#x202f;" horiz-adv-x="397" />
<glyph unicode="&#x2039;" horiz-adv-x="514" d="M592 610l-41 -192l-373 278l49 232l492 278l-41 -186l-365 -201z" />
<glyph unicode="&#x203a;" horiz-adv-x="514" d="M244 1014l41 192l372 -278l-49 -232l-491 -278l39 184l366 203z" />
<glyph unicode="&#x205f;" horiz-adv-x="497" />
<glyph unicode="&#x20ac;" horiz-adv-x="1091" d="M205 1059h100l72 332l164 231h786l-74 -346l-206 115h-279l-63 -84l-54 -248h361l-35 -166h-361l-34 -168h360l-35 -166h-360l-53 -250l24 -78h307l254 115l-71 -346h-811l-68 229l72 330h-101l35 166h101l34 168h-100z" />
<glyph unicode="&#x2122;" horiz-adv-x="1527" d="M1319 1303l156 319h307l-105 -135l-118 -557l45 -137h-324l98 141l41 192l-157 -333h-158l-8 350l-45 -213l36 -137h-317l98 137l119 557l-41 131l-57 -279l-86 121h-60l-112 -530l39 -137h-361l101 137l112 530h-57l-135 -121l59 283h916z" />
<glyph unicode="&#x25fc;" horiz-adv-x="1300" d="M0 1300h1300v-1300h-1300v1300z" />
<glyph horiz-adv-x="1159" d="M0 0z" />
</font>
</defs>
</svg>
