<?xml version="1.0" standalone="no"?>
<!DOCTYPE svg PUBLIC "-//W3C//DTD SVG 1.1//EN" "http://www.w3.org/Graphics/SVG/1.1/DTD/svg11.dtd" >
<svg xmlns="http://www.w3.org/2000/svg">
<metadata></metadata>
<defs>
<font id="kirstybold_italic" horiz-adv-x="1333" >
<font-face units-per-em="2048" ascent="1581" descent="-467" />
<missing-glyph horiz-adv-x="450" />
<glyph horiz-adv-x="0" />
<glyph unicode="&#xd;" horiz-adv-x="1159" />
<glyph unicode=" "  horiz-adv-x="450" />
<glyph unicode="&#x09;" horiz-adv-x="450" />
<glyph unicode="&#xa0;" horiz-adv-x="450" />
<glyph unicode="!" horiz-adv-x="581" d="M492 61l-72 -61h-268l-50 57l54 242l84 68h270l33 -60zM766 1571l41 -150l-57 -272l-267 -719h-207l43 719l58 268l110 154h279z" />
<glyph unicode="&#x22;" horiz-adv-x="671" d="M862 1571l43 -150l-16 -82l-193 -479h-100l10 422l-170 -422h-98l12 479l17 78l108 154h131l33 -129l96 129h127z" />
<glyph unicode="#" horiz-adv-x="1697" d="M1430 997h104l12 23l70 326l-2 26h-103l-18 -26l-70 -328zM1094 752h684l-43 -201h-684zM1188 797l-45 161l96 451l115 162h499l50 -160l-97 -453l-118 -161h-500zM1270 1571l-131 -172l-181 -848h-196l-166 455l-59 -281l51 -174h-393l122 174l144 674l-49 172h288 l164 -465l64 293l-51 172h393z" />
<glyph unicode="$" horiz-adv-x="1097" d="M707 367h53l39 51l10 53l-16 51l-50 19zM621 1102l14 -53l76 -29l39 184h-82l-37 -49zM512 84h-430l88 410l227 -127h176l45 219l-288 110l-68 232l68 317l170 242h311l18 84h134l-19 -84h363l-86 -408l-230 125h-108l-49 -231l266 -96l69 -234l-67 -317l-172 -242h-285 l-24 -84h-125z" />
<glyph unicode="%" horiz-adv-x="1748" d="M1325 326l14 -45h105l29 45l57 268l-14 51h-97l-37 -51zM545 971l14 -43h109l26 43l58 268l-11 53h-100l-39 -51zM1098 0l-74 238l94 446l176 244h467l70 -244l-94 -446l-172 -238h-467zM1356 1423h-332l29 -90l-97 -448l-170 -240h-471l-69 240l96 446l172 240h1210 l-1106 -1571h-256z" />
<glyph unicode="&#x26;" horiz-adv-x="1212" d="M748 1067l69 57l27 123l-13 45h-36l-39 -51l-27 -125zM518 326l14 -56h46l108 107l-86 237l-25 -22zM844 821l82 -207l194 191l154 -197l-250 -241l145 -367h-340l-51 125l-129 -125h-467l-69 238l55 258l154 223l184 147l-86 232l51 233l174 240h449l67 -238l-49 -231 l-84 -121z" />
<glyph unicode="'" horiz-adv-x="436" d="M651 1571l39 -150l-16 -82l-217 -479h-115l-12 479l16 78l111 154h194z" />
<glyph unicode="(" horiz-adv-x="546" d="M537 1239l-195 -915l145 -433h-200l-181 342l234 1102l328 344h172z" />
<glyph unicode=")" horiz-adv-x="548" d="M35 -109l305 441l195 913l-146 434h201l180 -342l-233 -1101l-328 -345h-174z" />
<glyph unicode="*" horiz-adv-x="1028" d="M887 1313l389 16l-320 -219l134 -362l-310 235l-307 -235l135 362l-323 219l389 -16l106 370z" />
<glyph unicode="+" horiz-adv-x="1091" d="M215 926h387l82 389h279l-82 -389h389l-62 -281h-389l-82 -387h-278l82 387h-387z" />
<glyph unicode="," horiz-adv-x="501" d="M469 94l-244 -280h-182l166 215h-84l-45 57l47 213l82 68h260l45 -60z" />
<glyph unicode="-" horiz-adv-x="921" d="M283 926h747l-61 -281h-748z" />
<glyph unicode="." horiz-adv-x="559" d="M485 61l-73 -61h-271l-49 57l53 242l84 68h263l45 -60z" />
<glyph unicode="/" horiz-adv-x="1038" d="M1139 1679h245l-1144 -1788h-256z" />
<glyph unicode="0" horiz-adv-x="1181" d="M543 324l12 -45h190l33 45l195 917l-15 51h-184l-37 -51zM207 0l-74 238l234 1093l174 240h770l69 -238l-233 -1095l-170 -238h-770z" />
<glyph unicode="1" horiz-adv-x="778" d="M936 1571l-281 -1317l72 -254h-641l180 254l174 821h-174l58 271l188 71l86 154h338z" />
<glyph unicode="2" horiz-adv-x="1130" d="M981 1249l-10 43h-324l-280 -129l88 408h805l69 -240l-59 -278l-639 -748l-37 -26h256l283 129l-86 -408h-969l53 258z" />
<glyph unicode="3" horiz-adv-x="1071" d="M172 406l225 -127h236l35 45l57 268l-18 53h-246l61 281h250l33 45l57 268l-16 53h-230l-282 -129l88 408h778l72 -240l-96 -446l-86 -117l45 -80l-97 -450l-172 -238h-780z" />
<glyph unicode="4" horiz-adv-x="1122" d="M674 711l65 303l-264 -303h199zM930 1571h446l-184 -254l-129 -606h147l-59 -281h-147l-37 -176l73 -254h-641l179 254l36 176h-376l-72 270z" />
<glyph unicode="5" horiz-adv-x="1136" d="M1202 686l-96 -446l-172 -240h-848l86 408l225 -129h322l39 51l57 270l-14 45h-459l-80 193l158 733h928l-88 -408l-228 129h-325l12 -39l-62 -282l15 -45h458z" />
<glyph unicode="6" horiz-adv-x="1236" d="M543 324l12 -45h256l31 45l55 256l-16 65h-271zM1090 1292h-316l-37 -51l-65 -315h567l68 -242l-95 -446l-170 -238h-835l-74 238l234 1093l174 240h860l-88 -408z" />
<glyph unicode="7" horiz-adv-x="1052" d="M313 262l570 1008l24 22h-295l-280 -129l88 408h809l69 -244l-612 -1083l29 -244h-645z" />
<glyph unicode="8" horiz-adv-x="1202" d="M680 969l12 -43h232l32 47l58 268l-15 51h-225l-37 -51zM543 324l12 -45h231l33 45l60 276l-15 45h-231l-31 -47zM1083 786l109 -65l45 -146l-72 -337l-168 -238h-790l-74 238l72 335l104 146l142 63l-111 74l-45 145l72 330l174 240h790l68 -238l-72 -338l-98 -139z" />
<glyph unicode="9" horiz-adv-x="1232" d="M668 991l18 -65h272l68 321l-14 45h-258l-31 -45zM252 408l225 -129h311l43 51l66 315h-571l-66 242l94 446l170 238h838l70 -238l-234 -1093l-170 -240h-862z" />
<glyph unicode=":" horiz-adv-x="563" d="M596 578l-74 -62h-270l-47 57l51 242l86 68h260l47 -60zM487 61l-73 -61h-271l-49 57l53 242l86 68h261l45 -60z" />
<glyph unicode=";" horiz-adv-x="512" d="M571 578l-73 -62h-269l-45 57l52 242l81 68h261l47 -60zM469 94l-244 -280h-182l166 215h-84l-45 57l47 213l82 68h260l45 -60z" />
<glyph unicode="&#x3c;" horiz-adv-x="980" d="M393 793l604 -449h-403l-424 315l53 252l559 316h406z" />
<glyph unicode="=" horiz-adv-x="1054" d="M236 711h927l-59 -281h-928zM328 1141h927l-59 -281h-928z" />
<glyph unicode="&#x3e;" horiz-adv-x="978" d="M123 344l792 434l-600 449h400l424 -316l-54 -252l-559 -315h-403z" />
<glyph unicode="?" horiz-adv-x="1026" d="M664 61l-74 -61h-268l-50 57l54 242l84 68h260l45 -60zM578 825l245 90l39 54l58 270l-17 53h-319l-285 -129l88 408h807l68 -240l-97 -448l-166 -234l-247 -90l-35 -49l37 -111h-387l41 195z" />
<glyph unicode="@" horiz-adv-x="1406" d="M707 317h116l13 13l28 137h-121l-14 -23l-24 -114zM608 647h295l31 148l-6 16h-148l-176 -78l55 260h486l37 -137l-115 -539h90l154 723l-15 52h-721l-36 -52l-199 -938l6 -77h993l-8 -43l-172 -238h-1007l-72 238l237 1124l175 242h964l70 -240l-205 -971h-821l-45 139 l49 232z" />
<glyph unicode="A" d="M655 565h172l-14 324zM694 0l152 252v31h-326l-16 -35l47 -248h-555l213 262l-4 -8l528 1057l-43 260h481l62 -1313l104 -258h-643z" />
<glyph unicode="B" horiz-adv-x="1312" d="M793 969h251l35 47l47 225l-14 51h-266l8 -39zM629 279h270l33 45l67 319l-12 45h-254l-80 -379zM1206 827l109 -63l47 -146l-82 -380l-170 -238h-1038l180 252l225 1065l-71 254h1038l69 -238l-63 -295l-96 -139z" />
<glyph unicode="C" horiz-adv-x="1095" d="M1006 1292h-234l-37 -51l-194 -917l12 -45h260l285 127l-86 -406h-807l-74 238l234 1093l174 240h780l-88 -408z" />
<glyph unicode="D" horiz-adv-x="1361" d="M629 279h295l30 45l195 917l-12 51h-293l10 -39l-201 -944zM72 0l180 252l225 1065l-71 254h1083l72 -238l-234 -1095l-172 -238h-1083z" />
<glyph unicode="E" horiz-adv-x="1181" d="M1458 1571l-88 -408l-225 129h-297l6 -20l-63 -303h67l281 127l-113 -533l-227 125h-68l-84 -393l-12 -16h293l282 129l-86 -408h-1054l180 254l225 1063l-72 254h1055z" />
<glyph unicode="F" horiz-adv-x="1155" d="M1458 1571l-88 -408l-225 129h-301l8 -30l-61 -293h67l281 127l-113 -533l-227 125h-68l-92 -434l74 -254h-643l180 254l225 1063l-72 254h1055z" />
<glyph unicode="G" horiz-adv-x="1226" d="M1333 815l-180 -252l-66 -309l74 -254h-954l-74 238l234 1093l174 240h850l-88 -408l-228 129h-301l-37 -51l-194 -917l12 -45h223l-4 26l55 254l-73 256h577z" />
<glyph unicode="H" horiz-adv-x="1499" d="M1761 1571l-182 -254l-225 -1063l71 -254h-618l180 254l92 434h-366l-92 -434l73 -254h-620l180 254l225 1063l-71 254h622l-184 -254l-74 -348h367l73 348l-71 254h620z" />
<glyph unicode="I" horiz-adv-x="759" d="M1034 1571l-184 -254l-225 -1063l73 -254h-641l181 254l225 1063l-72 254h643z" />
<glyph unicode="J" horiz-adv-x="1056" d="M346 279h174l33 45l211 995l-70 252h641l-180 -250l-231 -1083l-170 -238h-721l86 406z" />
<glyph unicode="K" horiz-adv-x="1474" d="M1053 1571l-185 -254l-57 -275l401 529h502l-358 -268l-258 -334l194 -705l183 -264h-672l88 242l-154 456l-94 -444l74 -254h-643l180 254l225 1063l-71 254h645z" />
<glyph unicode="L" horiz-adv-x="1110" d="M1049 1571l-185 -254l-217 -1022l-12 -16h250l282 129l-86 -408h-1011l180 254l225 1063l-72 254h646z" />
<glyph unicode="M" horiz-adv-x="1675" d="M1935 1571l-184 -254l-225 -1063l73 -254h-557l183 254l112 528l-368 -782h-269l-30 799l-115 -545l76 -254h-557l180 254l225 1063l-71 254h639l20 -694l340 694h528z" />
<glyph unicode="N" horiz-adv-x="1427" d="M1696 1571l-185 -254l-278 -1317h-287l-284 770l-109 -516l76 -254h-557l180 254l225 1063l-71 254h417l275 -789l112 535l-71 254h557z" />
<glyph unicode="O" horiz-adv-x="1247" d="M543 324l12 -45h256l31 45l194 917l-12 51h-250l-37 -51zM207 0l-74 238l234 1093l174 240h835l70 -238l-234 -1095l-170 -238h-835z" />
<glyph unicode="P" horiz-adv-x="1290" d="M764 883h287l32 47l66 311l-12 51h-303l10 -39zM1260 602h-555l-74 -348l71 -254h-630l180 252l225 1065l-71 254h1060l72 -238l-104 -489z" />
<glyph unicode="Q" horiz-adv-x="1212" d="M514 324l14 -45h254l33 45l195 917l-15 51h-250l-36 -51zM911 0l95 -102l-224 -213l-266 284l35 31h-373l-72 238l234 1093l172 240h836l69 -238l-233 -1095l-170 -238h-103z" />
<glyph unicode="R" horiz-adv-x="1466" d="M774 883h277l32 47l66 311l-12 51h-293l10 -39zM1004 557l-11 45h-278l-127 -602h-516l180 252l225 1065l-71 254h1083l72 -238l-82 -381l-99 -141l-145 -68l106 -65l50 -146l-60 -280l72 -252h-393l-74 236z" />
<glyph unicode="S" horiz-adv-x="1128" d="M1198 686l-96 -446l-170 -240h-850l86 408l227 -129h365l39 51l39 184l-17 51l-463 172l-71 234l78 360l174 240h807l-89 -408l-227 129h-323l-37 -51l-21 -98l15 -51l464 -174z" />
<glyph unicode="T" horiz-adv-x="1134" d="M1309 1069l-228 129l21 94h-66l-221 -1038l72 -254h-641l180 254l221 1038h-63l-21 -94l-287 -129l109 502h1032z" />
<glyph unicode="U" horiz-adv-x="1390" d="M858 1317l-211 -993l12 -45h256l33 45l211 993l-74 254h578l-182 -252l-230 -1081l-170 -238h-770l-71 238l229 1079l-72 254h641z" />
<glyph unicode="V" d="M1159 1319l-43 252h555l-215 -262l2 8l-655 -1317h-309l-66 1313l-98 258h643l-152 -250l29 -645l10 22z" />
<glyph unicode="W" horiz-adv-x="2066" d="M1892 1319l-45 252h557l-215 -262l4 8l-659 -1317h-307l-41 768l-383 -768h-309l-66 1313l-98 258h643l-152 -250l27 -655l440 905h266l27 -901l27 55z" />
<glyph unicode="X" horiz-adv-x="1406" d="M1004 1571l-103 -244l45 -168l125 168v244h584l-273 -266l2 4l-344 -443l211 -604l-2 4l158 -266h-647l100 242l-86 268l-192 -268v-242h-582l268 266l-2 -4l418 545l-172 502l2 -4l-160 266h650z" />
<glyph unicode="Y" horiz-adv-x="1374" d="M1018 1571l-103 -244l39 -201l129 201v244h586l-272 -262l-342 -506l-117 -549l72 -254h-641l180 254l117 547l-140 504l-157 266h649z" />
<glyph unicode="Z" horiz-adv-x="1128" d="M125 248l741 1026l21 18h-244l-281 -129l89 408h809l69 -248l-727 -1028l-18 -16h270l279 129l-86 -408h-850z" />
<glyph unicode="[" horiz-adv-x="534" d="M494 -111h-433l381 1790h408l-37 -172h-192l-308 -1444h217z" />
<glyph unicode="\" horiz-adv-x="1038" d="M362 1679h259l383 -1788h-246z" />
<glyph unicode="]" horiz-adv-x="534" d="M371 1681h430l-381 -1790h-408l37 172h191l307 1444h-213z" />
<glyph unicode="^" horiz-adv-x="1058" d="M825 1374l-596 -698l86 403l418 490h254l213 -490l-88 -405z" />
<glyph unicode="_" horiz-adv-x="1191" d="M0 -49h1141l-49 -236h-1139z" />
<glyph unicode="`" horiz-adv-x="671" d="M393 1870l21 59h303l321 -217h-276z" />
<glyph unicode="a" horiz-adv-x="1267" d="M633 479h115l-7 223zM623 0l131 213l-2 10h-224l-4 -8l43 -215h-495l186 229l412 830l-19 211h393l52 -1047l90 -223h-563z" />
<glyph unicode="b" horiz-adv-x="1118" d="M1034 655l62 -39l41 -122l-62 -289l-145 -205h-848l156 217l178 834l-66 219h848l59 -205l-53 -252l-76 -115zM584 254h170l14 18l49 236l-6 20h-170zM864 782l19 29l37 174l-9 31h-166l-49 -234h168z" />
<glyph unicode="c" horiz-adv-x="911" d="M807 1016h-170l-19 -27l-151 -717l6 -18h191l239 108l-76 -362h-653l-59 205l182 858l145 207h635l-78 -367z" />
<glyph unicode="d" horiz-adv-x="1116" d="M571 254h189l16 18l152 713l-10 31h-189l2 -8zM70 0l155 217l178 834l-65 219h883l61 -205l-182 -860l-148 -205h-882z" />
<glyph unicode="e" horiz-adv-x="968" d="M1204 1270l-78 -367l-190 113h-203l-49 -234h33l239 109l-100 -473l-194 110h-33l-58 -274h203l238 111l-76 -365h-866l155 219l178 832l-65 219h866z" />
<glyph unicode="f" horiz-adv-x="1013" d="M1217 1270l-78 -367l-191 113h-203l-49 -234h33l240 109l-101 -473l-194 110h-33l-66 -309l64 -219h-557l156 219l178 832l-66 219h867z" />
<glyph unicode="g" horiz-adv-x="1034" d="M1102 676l-156 -219l-51 -238l63 -219h-780l-61 205l182 858l145 207h691l-78 -365l-193 111h-223l-18 -27l-152 -715l4 -20h141l41 197l-61 225h506z" />
<glyph unicode="h" horiz-adv-x="1236" d="M1446 1270l-156 -219l-178 -832l62 -219h-539l156 219l65 309h-254l-65 -309l63 -219h-541l156 219l178 832l-65 219h544l-157 -219l-58 -269h254l58 269l-66 219h543z" />
<glyph unicode="i" horiz-adv-x="638" d="M852 1270l-156 -219l-178 -830l62 -221h-545l151 219l179 832l-62 219h549z" />
<glyph unicode="j" horiz-adv-x="872" d="M344 254h125l14 18l166 781l-65 217h557l-156 -213l-180 -852l-148 -205h-583l76 362z" />
<glyph unicode="k" horiz-adv-x="1265" d="M899 1270l-158 -219l-32 -148l278 367h449l-324 -242l-188 -248l149 -551l158 -229h-586l78 209l-100 291l-60 -281l64 -219h-557l155 219l178 832l-65 219h561z" />
<glyph unicode="l" horiz-adv-x="978" d="M901 1270l-158 -219l-170 -797h170l238 111l-76 -365h-831l155 219l179 832l-66 219h559z" />
<glyph unicode="m" horiz-adv-x="1392" d="M1595 1270l-155 -219l-178 -832l65 -219h-491l153 219l62 283l-234 -502h-237l-17 516l-63 -297l63 -219h-489l155 219l179 832l-66 219h543l16 -494l240 494h454z" />
<glyph unicode="n" horiz-adv-x="1232" d="M1417 1270l-155 -219l-224 -1051h-254l-204 555l-72 -336l63 -219h-487l156 219l178 832l-66 219h363l200 -574l76 355l-67 219h493z" />
<glyph unicode="o" horiz-adv-x="985" d="M473 254h180l15 20l151 709l-8 33h-172l-18 -27l-152 -715zM176 0l-61 205l182 858l145 207h672l60 -205l-183 -860l-145 -205h-670z" />
<glyph unicode="p" horiz-adv-x="1101" d="M651 741h197l20 21l47 223l-10 31h-200l4 -8zM1026 485h-428l-57 -266l61 -219h-545l156 217l178 834l-65 219h866l59 -205l-80 -375z" />
<glyph unicode="q" horiz-adv-x="1011" d="M475 256h180l13 16l151 713l-8 33h-170l-20 -27l-152 -719zM803 0l55 -59l-201 -197l-229 248l6 8h-256l-61 205l182 862l147 207h670l58 -205l-183 -864l-145 -205h-43z" />
<glyph unicode="r" horiz-adv-x="1257" d="M686 741h191l18 21l47 223l-10 31h-191l2 -8zM831 465l-6 20h-192l-103 -485h-448l156 217l178 834l-66 219h887l59 -205l-63 -295l-76 -115l-96 -43l61 -39l43 -122l-49 -234l66 -217h-344l-62 203z" />
<glyph unicode="s" horiz-adv-x="894" d="M956 547l-71 -340l-144 -207h-688l78 369l193 -115h272l18 25l29 129l-8 26l-361 135l-59 197l64 297l145 207h653l-78 -367l-190 113h-240l-18 -27l-16 -82l6 -28l360 -136z" />
<glyph unicode="t" horiz-adv-x="960" d="M1073 831l-209 115l15 70h-19l-170 -797l64 -219h-555l155 219l170 797h-14l-14 -70l-260 -115l92 439h837z" />
<glyph unicode="u" horiz-adv-x="1038" d="M508 254h178l14 20l166 777l-59 200l-139 -200l-166 -779zM1311 1270l-156 -217l-180 -848l-146 -205h-620l-59 205l180 846l-66 219h1047z" />
<glyph unicode="v" horiz-adv-x="1105" d="M692 1053l25 -435l205 439l-39 213h495l-188 -230l4 9l-520 -1049h-271l-51 1044l-88 226h565z" />
<glyph unicode="w" horiz-adv-x="1699" d="M1280 1270l25 -649l204 436l-39 213h498l-188 -230l4 9l-522 -1049h-271l-33 563l-276 -563h-268l-56 1038l-90 232h568l-134 -213l21 -443l319 656h238z" />
<glyph unicode="x" horiz-adv-x="1249" d="M885 1270l-82 -211l22 -90l70 90l6 211h514l-250 -244l-254 -328l156 -456l145 -242h-565l84 209l-59 166l-123 -166v-209h-512l246 242l311 411l-129 373l-148 244h568z" />
<glyph unicode="y" horiz-adv-x="1249" d="M909 1270l-86 -209l23 -105l69 105l7 209h516l-240 -232l-270 -395l-90 -424l63 -219h-555l154 219l90 422l-109 395l-139 234h567z" />
<glyph unicode="z" horiz-adv-x="819" d="M59 213l572 803h-154l-241 -113l77 367h660l57 -213l-563 -803h178l238 115l-78 -369h-686z" />
<glyph unicode="{" horiz-adv-x="675" d="M387 979l76 356l325 344h175l-306 -440l-57 -270l-137 -183l59 -184l-57 -270l117 -441h-174l-179 345l76 354l-74 196z" />
<glyph unicode="|" horiz-adv-x="186" d="M391 1788h160l-426 -2005h-158z" />
<glyph unicode="}" horiz-adv-x="567" d="M563 590l-76 -354l-325 -345h-172l303 441l57 270l137 184l-59 183l57 270l-116 440h174l178 -344l-76 -356l74 -193z" />
<glyph unicode="~" horiz-adv-x="878" d="M205 795l244 153l323 -147l250 149l-27 -127l-239 -151l-322 151l-256 -153z" />
<glyph unicode="&#xa1;" horiz-adv-x="581" d="M420 1509l76 62h268l47 -58l-53 -241l-84 -68h-273l-32 60zM147 0l-41 150l58 272l264 719h207l-41 -719l-57 -268l-109 -154h-281z" />
<glyph unicode="&#xa2;" horiz-adv-x="923" d="M537 510h18l162 762h-17l-16 -27l-154 -717zM502 256h-264l-60 205l182 858l148 207h264l55 262h162l-55 -262h229l-78 -369l-194 115h-12l-162 -762h31l241 106l-76 -360h-249l-48 -225h-161z" />
<glyph unicode="&#xa3;" horiz-adv-x="1030" d="M197 926h137l86 407l172 238h719l-88 -406l-226 127h-174l-35 -45l-67 -321h74l288 127l-114 -535l-230 127h-80l-77 -371h284l299 273l-114 -547h-1041l178 250l84 395h-137z" />
<glyph unicode="&#xa5;" horiz-adv-x="1374" d="M453 862h192l-119 443l-157 266h649l-103 -244l39 -201l129 201v244h586l-272 -264l-303 -445h215l-47 -225h-242l-23 -98h242l-47 -230h-242l-12 -55l72 -254h-641l180 254l12 55h-225l47 230h225l23 98h-225z" />
<glyph unicode="&#xa7;" horiz-adv-x="1019" d="M731 864h-199l-18 -26l-12 -62l6 -26l115 -43h200l19 24l14 62l-12 28zM1171 934l-57 -275l-147 -206h-52l13 -35l-45 -211l-146 -207h-686l78 369l193 -115h270l18 25l-8 26l-358 135l-58 197l58 274l147 207h51l-12 37l45 209l148 207h653l-80 -367l-192 113h-240 l-19 -27l9 -24l362 -136z" />
<glyph unicode="&#xa8;" horiz-adv-x="692" d="M1028 1776l-76 -64h-161l-46 60l25 112l82 66h154l47 -58zM702 1776l-71 -64h-162l-47 60l24 112l84 66h154l43 -58z" />
<glyph unicode="&#xa9;" horiz-adv-x="1380" d="M227 629q27 123 96.5 232.5t169 190.5t218 128t243.5 47q106 0 195.5 -36t153 -100.5t99.5 -151.5t36 -187q0 -145 -64.5 -275.5t-169 -231t-237.5 -158.5t-269 -58q-109 0 -197.5 35.5t-153 99t-99.5 149.5t-35 189q0 31 3 62.5t11 64.5zM297 625q-12 -59 -12 -111 q0 -90 30.5 -166t88 -132t136 -88t175.5 -32q123 0 240.5 52.5t209.5 140.5t148.5 204.5t56.5 243.5q0 90 -30.5 167t-88 134.5t-136.5 89t-173 31.5q-111 0 -216 -42t-193.5 -114.5t-149.5 -169.5t-86 -208zM983 776q-37 80 -119 80q-39 0 -79 -21.5t-71.5 -61.5t-51 -97.5 t-19.5 -128.5q0 -72 34 -116t91 -44q37 0 76 18.5t71 49.5l93 -74q-111 -133 -273 -133q-109 0 -170 74.5t-61 193.5q0 98 32.5 185t86 153t124 103.5t148.5 37.5q168 0 217 -145z" />
<glyph unicode="&#xab;" horiz-adv-x="925" d="M561 666l51 243l-219 -118zM702 961l441 249l-53 -252l-308 -167l234 -177l-53 -254l-334 248l-54 -248l-405 299l53 252l533 299z" />
<glyph unicode="&#xad;" horiz-adv-x="921" d="M283 926h747l-61 -281h-748z" />
<glyph unicode="&#xae;" horiz-adv-x="1175" d="M834 1159q-106 0 -193.5 -41t-150 -104.5t-97.5 -142t-35 -152.5q0 -59 19.5 -113.5t59.5 -95.5t99.5 -65.5t139.5 -24.5q90 0 180 33.5t162 92t116 137.5t44 169q0 59 -24 114.5t-68 98.5t-107 68.5t-145 25.5zM662 338q-92 0 -166 28.5t-124 78t-78 116t-28 141.5 q0 104 47 204t128 175.5t187.5 121.5t225.5 46q92 0 168 -26.5t128 -74.5t81 -114.5t29 -144.5q0 -104 -48.5 -202.5t-131.5 -176.5t-191 -125t-227 -47zM733 932l-22 -113h82q63 0 63 74q0 39 -41 39h-82zM739 719h-51l-39 -180h-98l104 491h179q59 0 91.5 -28.5 t32.5 -83.5q0 -66 -30.5 -109t-85.5 -76l45 -194h-103z" />
<glyph unicode="&#xaf;" horiz-adv-x="768" d="M1073 1681h-665l45 213h665z" />
<glyph unicode="&#xb0;" horiz-adv-x="499" d="M438 1264h152l31 145l-152 6zM326 1106l-35 113l51 237l82 115h309l33 -115l-51 -237l-82 -113h-307z" />
<glyph unicode="&#xb2;" horiz-adv-x="700" d="M731 1565h-166l-205 -103l72 334h529l51 -176l-39 -182l-371 -439h88l211 101l-72 -334h-643l41 197z" />
<glyph unicode="&#xb3;" horiz-adv-x="724" d="M287 1094l168 -95h114l35 166h-160l52 234h163l31 151l-2 15h-115l-208 -103l71 334h514l51 -176l-61 -283l-45 -61l25 -41l-64 -293l-125 -176h-514z" />
<glyph unicode="&#xb4;" horiz-adv-x="702" d="M657 1712h-276l416 217h303l-2 -59z" />
<glyph unicode="&#xb6;" horiz-adv-x="1306" d="M662 793l-21 8l18 8h-403v29l53 59l142 -23l215 -65l73 27l-237 75l-103 154l158 158l154 -103l77 -237l25 75l-63 213l-23 142l61 53h27v-405l8 20l31 -98l80 237l153 103l158 -158l-102 -154l-238 -75l74 -27l215 63l141 23l54 -59v-29h-406l21 -6l-21 -10l-4 2 l-74 -25l238 -80l102 -151l-158 -158l-153 100l-80 238l-25 -74l66 -215l23 -141l-62 -54h-27v406l-6 -21l-10 19v-404h-29l-59 54l23 141l65 215l-25 74l-77 -238l-154 -100l-158 158l103 151l237 80l-73 25l-215 -66l-142 -22l-53 61v27h406zM985 791h404v-29l-54 -60 l-141 23zM831 965v401h29l60 -53l-23 -142zM414 651l-78 -108h-113l70 96zM971 391l108 -78v-112l-96 69zM674 1208l-109 78v113l97 -70zM1231 948l78 109h112l-69 -96zM293 961l-70 98l113 -4l78 -107zM983 1329l98 70l-4 -113l-106 -78zM662 270l-99 -69l4 112l107 78z M1352 639l69 -98l-112 4l-78 106zM915 893l25 8l117 121l2 14l-15 -2l-120 -116zM1044 565l15 -2l-2 15l-117 120l-25 9l9 -25zM586 1036l2 -14l117 -121l22 -8l-6 25l-121 116zM721 682l6 23l-22 -7l-117 -120l-2 -15l14 2zM829 963l2 2v-4z" />
<glyph unicode="&#xb8;" horiz-adv-x="526" d="M401 -252l-231 -215h-178l153 166h-86l-45 43l35 162l78 51h260l49 -45z" />
<glyph unicode="&#xb9;" horiz-adv-x="514" d="M801 1796l-178 -833l51 -197h-469l131 192l100 472h-104l45 217l117 49l57 100h250z" />
<glyph unicode="&#xbb;" horiz-adv-x="933" d="M688 905l-51 -243l215 116zM158 612l307 166l-234 178l54 254l336 -249l53 249l403 -299l-53 -252l-530 -299l53 248l-443 -248z" />
<glyph unicode="&#xbc;" horiz-adv-x="1921" d="M1516 422l22 100l-94 -100h72zM967 1571l-142 -662l49 -174h-452l123 168l73 348h-86l43 199l99 41l49 80h244zM1661 836h311l-125 -170l-53 -244h76l-45 -217h-76l-8 -39l53 -166h-457l125 166l8 39h-176l-43 176zM1769 1571h349l-1626 -1571h-363z" />
<glyph unicode="&#xbd;" horiz-adv-x="2123" d="M1012 1571l-142 -662l50 -174h-455l123 168l74 348h-82l43 199l96 41l49 80h244zM1722 618h-108l-193 -88l64 306h465l49 -154l-31 -147l-280 -320h32l199 84l-64 -299h-567l35 172zM1896 1571h347l-1735 -1571h-363z" />
<glyph unicode="&#xbe;" horiz-adv-x="2062" d="M432 1036l152 -84h86l20 95h-135l45 215h135l21 94h-84l-191 -88l66 303h452l50 -152l-50 -227l-32 -39l20 -25l-51 -241l-115 -152h-452zM1886 1571h344l-1743 -1571h-362zM1493 422l23 100l-93 -100h70zM1638 836h314l-125 -170l-53 -244h73l-45 -217h-73l-9 -39 l54 -166h-459l125 166l8 39h-174l-43 176z" />
<glyph unicode="&#xbf;" horiz-adv-x="1026" d="M702 1509l76 62h271l43 -58l-54 -241l-82 -68h-262l-43 60zM788 745l-243 -90l-41 -53l-58 -270l17 -53h319l283 129l-86 -408h-803l-74 240l97 448l168 234l249 90l33 49l-37 110h385l-41 -194z" />
<glyph unicode="&#xc0;" d="M0 0zM655 565h172l-14 324zM694 0l152 252v31h-326l-16 -35l47 -248h-555l213 262l-4 -8l528 1057l-43 260h481l62 -1313l104 -258h-643zM631 1870l21 59h303l321 -217h-276z" />
<glyph unicode="&#xc1;" d="M0 0zM655 565h172l-14 324zM694 0l152 252v31h-326l-16 -35l47 -248h-555l213 262l-4 -8l528 1057l-43 260h481l62 -1313l104 -258h-643zM1003 1712h-276l416 217h303l-2 -59z" />
<glyph unicode="&#xc2;" d="M0 0zM655 565h172l-14 324zM694 0l152 252v31h-326l-16 -35l47 -248h-555l213 262l-4 -8l528 1057l-43 260h481l62 -1313l104 -258h-643zM1022 1786l-127 -105h-344l385 240h235l324 -240h-387z" />
<glyph unicode="&#xc3;" d="M0 0zM655 565h172l-14 324zM694 0l152 252v31h-326l-16 -35l47 -248h-555l213 262l-4 -8l528 1057l-43 260h481l62 -1313l104 -258h-643zM649 1812l240 152l282 -127l254 154l-39 -189l-239 -149l-277 131l-258 -156z" />
<glyph unicode="&#xc4;" d="M0 0zM655 565h172l-14 324zM694 0l152 252v31h-326l-16 -35l47 -248h-555l213 262l-4 -8l528 1057l-43 260h481l62 -1313l104 -258h-643zM1339 1776l-76 -64h-161l-46 60l25 112l82 66h154l47 -58zM1013 1776l-71 -64h-162l-47 60l24 112l84 66h154l43 -58z" />
<glyph unicode="&#xc5;" d="M0 0zM655 565h172l-14 324zM694 0l152 252v31h-326l-16 -35l47 -248h-555l213 262l-4 -8l528 1057l-43 260h481l62 -1313l104 -258h-643zM977 1726h90l28 140h-90zM889 1602l-37 112l32 154l82 114h220l34 -114l-32 -154l-82 -112h-217z" />
<glyph unicode="&#xc6;" horiz-adv-x="1544" d="M776 565l55 256l-151 -256h96zM504 248l41 -223l166 229l6 29h-185zM-4 0l213 262l-4 -6l747 1315h832l-88 -408l-226 129h-163l2 -20l-72 -346h47l283 127l-115 -535l-229 127h-47l-74 -350l-12 -16h163l283 129l-86 -408h-1454z" />
<glyph unicode="&#xc7;" horiz-adv-x="1095" d="M131 0zM1006 1292h-234l-37 -51l-194 -917l12 -45h260l285 127l-86 -406h-807l-74 238l234 1093l174 240h780l-88 -408zM747 -252l-231 -215h-178l153 166h-86l-45 43l35 162l78 51h260l49 -45z" />
<glyph unicode="&#xc8;" horiz-adv-x="1181" d="M70 0zM1458 1571l-88 -408l-225 129h-297l6 -20l-63 -303h67l281 127l-113 -533l-227 125h-68l-84 -393l-12 -16h293l282 129l-86 -408h-1054l180 254l225 1063l-72 254h1055zM616 1870l21 59h303l321 -217h-276z" />
<glyph unicode="&#xc9;" horiz-adv-x="1181" d="M70 0zM1458 1571l-88 -408l-225 129h-297l6 -20l-63 -303h67l281 127l-113 -533l-227 125h-68l-84 -393l-12 -16h293l282 129l-86 -408h-1054l180 254l225 1063l-72 254h1055zM964 1712h-276l416 217h303l-2 -59z" />
<glyph unicode="&#xca;" horiz-adv-x="1181" d="M70 0zM1458 1571l-88 -408l-225 129h-297l6 -20l-63 -303h67l281 127l-113 -533l-227 125h-68l-84 -393l-12 -16h293l282 129l-86 -408h-1054l180 254l225 1063l-72 254h1055zM977 1786l-127 -105h-344l385 240h235l324 -240h-387z" />
<glyph unicode="&#xcb;" horiz-adv-x="1181" d="M70 0zM1458 1571l-88 -408l-225 129h-297l6 -20l-63 -303h67l281 127l-113 -533l-227 125h-68l-84 -393l-12 -16h293l282 129l-86 -408h-1054l180 254l225 1063l-72 254h1055zM1286 1776l-76 -64h-161l-46 60l25 112l82 66h154l47 -58zM960 1776l-71 -64h-162l-47 60 l24 112l84 66h154l43 -58z" />
<glyph unicode="&#xcc;" horiz-adv-x="772" d="M70 0zM1046 1571l-184 -254l-225 -1063l73 -254h-641l181 254l225 1063l-72 254h643zM354 1870l21 59h303l321 -217h-276z" />
<glyph unicode="&#xcd;" horiz-adv-x="790" d="M57 0zM1034 1571l-184 -254l-225 -1063l73 -254h-641l181 254l225 1063l-72 254h643zM776 1712h-276l416 217h303l-2 -59z" />
<glyph unicode="&#xce;" horiz-adv-x="849" d="M76 0zM1052 1571l-184 -254l-225 -1063l73 -254h-641l181 254l225 1063l-72 254h643zM783 1786l-127 -105h-344l385 240h235l324 -240h-387z" />
<glyph unicode="&#xcf;" horiz-adv-x="759" d="M57 0zM1034 1571l-184 -254l-225 -1063l73 -254h-641l181 254l225 1063l-72 254h643zM1065 1776l-76 -64h-161l-46 60l25 112l82 66h154l47 -58zM739 1776l-71 -64h-162l-47 60l24 112l84 66h154l43 -58z" />
<glyph unicode="&#xd0;" horiz-adv-x="1361" d="M303 926h94l82 391l-73 254h1083l72 -238l-234 -1095l-172 -238h-1083l182 252l82 393h-94zM629 279h295l32 45l195 917l-14 51h-293l10 -39l-70 -327h267l-62 -281h-266l-70 -336z" />
<glyph unicode="&#xd1;" horiz-adv-x="1427" d="M72 0zM1696 1571l-185 -254l-278 -1317h-287l-284 770l-109 -516l76 -254h-557l180 254l225 1063l-71 254h417l275 -789l112 535l-71 254h557zM707 1812l240 152l282 -127l254 154l-39 -189l-239 -149l-277 131l-258 -156z" />
<glyph unicode="&#xd2;" horiz-adv-x="1247" d="M133 0zM543 324l12 -45h256l31 45l194 917l-12 51h-250l-37 -51zM207 0l-74 238l234 1093l174 240h835l70 -238l-234 -1095l-170 -238h-835zM563 1870l21 59h303l321 -217h-276z" />
<glyph unicode="&#xd3;" horiz-adv-x="1247" d="M133 0zM543 324l12 -45h256l31 45l194 917l-12 51h-250l-37 -51zM207 0l-74 238l234 1093l174 240h835l70 -238l-234 -1095l-170 -238h-835zM1036 1712h-276l416 217h303l-2 -59z" />
<glyph unicode="&#xd4;" horiz-adv-x="1247" d="M133 0zM543 324l12 -45h256l31 45l194 917l-12 51h-250l-37 -51zM207 0l-74 238l234 1093l174 240h835l70 -238l-234 -1095l-170 -238h-835zM996 1786l-127 -105h-344l385 240h235l324 -240h-387z" />
<glyph unicode="&#xd5;" horiz-adv-x="1247" d="M133 0zM543 324l12 -45h256l31 45l194 917l-12 51h-250l-37 -51zM207 0l-74 238l234 1093l174 240h835l70 -238l-234 -1095l-170 -238h-835zM641 1812l240 152l282 -127l254 154l-39 -189l-239 -149l-277 131l-258 -156z" />
<glyph unicode="&#xd6;" horiz-adv-x="1247" d="M133 0zM543 324l12 -45h256l31 45l194 917l-12 51h-250l-37 -51zM207 0l-74 238l234 1093l174 240h835l70 -238l-234 -1095l-170 -238h-835zM1304 1776l-76 -64h-161l-46 60l25 112l82 66h154l47 -58zM978 1776l-71 -64h-162l-47 60l24 112l84 66h154l43 -58z" />
<glyph unicode="&#xd7;" horiz-adv-x="1130" d="M557 1260l217 -275l332 277l160 -201l-334 -275l215 -274l-244 -201l-215 275l-332 -275l-155 201l329 274l-215 273z" />
<glyph unicode="&#xd8;" horiz-adv-x="1245" d="M215 0l-82 238l234 1093l174 240h600l98 172h234l-99 -172h2l68 -238l-234 -1095l-168 -238h-583l-123 -207h-244zM618 686l359 606h-203l-39 -51zM842 324l112 532l-336 -577h193z" />
<glyph unicode="&#xd9;" horiz-adv-x="1390" d="M240 0zM858 1317l-211 -993l12 -45h256l33 45l211 993l-74 254h578l-182 -252l-230 -1081l-170 -238h-770l-71 238l229 1079l-72 254h641zM645 1870l21 59h303l321 -217h-276z" />
<glyph unicode="&#xda;" horiz-adv-x="1390" d="M240 0zM858 1317l-211 -993l12 -45h256l33 45l211 993l-74 254h578l-182 -252l-230 -1081l-170 -238h-770l-71 238l229 1079l-72 254h641zM1097 1712h-276l416 217h303l-2 -59z" />
<glyph unicode="&#xdb;" horiz-adv-x="1390" d="M240 0zM858 1317l-211 -993l12 -45h256l33 45l211 993l-74 254h578l-182 -252l-230 -1081l-170 -238h-770l-71 238l229 1079l-72 254h641zM1100 1786l-127 -105h-344l385 240h235l324 -240h-387z" />
<glyph unicode="&#xdc;" horiz-adv-x="1390" d="M240 0zM858 1317l-211 -993l12 -45h256l33 45l211 993l-74 254h578l-182 -252l-230 -1081l-170 -238h-770l-71 238l229 1079l-72 254h641zM1386 1776l-76 -64h-161l-46 60l25 112l82 66h154l47 -58zM1060 1776l-71 -64h-162l-47 60l24 112l84 66h154l43 -58z" />
<glyph unicode="&#xdd;" horiz-adv-x="1374" d="M369 0zM1018 1571l-103 -244l39 -201l129 201v244h586l-272 -262l-342 -506l-117 -549l72 -254h-641l180 254l117 547l-140 504l-157 266h649zM1048 1712h-276l416 217h303l-2 -59z" />
<glyph unicode="&#xde;" horiz-adv-x="1107" d="M694 584h121l14 20l60 279l-8 30h-117zM641 328l-16 -74l73 -254h-641l181 254l225 1063l-72 254h643l-184 -254l-31 -148h367l57 -206l-90 -431l-145 -204h-367z" />
<glyph unicode="&#xdf;" horiz-adv-x="1857" d="M82 0zM985 547l-71 -340l-144 -207h-688l78 369l193 -115h272l18 25l29 129l-8 26l-361 135l-59 197l64 297l145 207h653l-78 -367l-190 113h-240l-18 -27l-16 -82l6 -28l360 -136zM1896 547l-71 -340l-144 -207h-688l78 369l193 -115h272l18 25l29 129l-8 26l-361 135 l-59 197l64 297l145 207h653l-78 -367l-190 113h-240l-18 -27l-16 -82l6 -28l360 -136z" />
<glyph unicode="&#xe0;" horiz-adv-x="1105" d="M0 0zM559 479h115l-7 223zM549 0l131 213l-2 10h-224l-4 -8l43 -215h-495l186 229l412 830l-19 211h393l52 -1047l90 -223h-563zM377 1555l21 59h303l321 -217h-276z" />
<glyph unicode="&#xe1;" horiz-adv-x="1105" d="M0 0zM559 479h115l-7 223zM549 0l131 213l-2 10h-224l-4 -8l43 -215h-495l186 229l412 830l-19 211h393l52 -1047l90 -223h-563zM772 1397h-276l416 217h303l-2 -59z" />
<glyph unicode="&#xe2;" horiz-adv-x="1105" d="M0 0zM559 479h115l-7 223zM549 0l131 213l-2 10h-224l-4 -8l43 -215h-495l186 229l412 830l-19 211h393l52 -1047l90 -223h-563zM848 1471l-127 -105h-344l385 240h235l324 -240h-387z" />
<glyph unicode="&#xe3;" horiz-adv-x="1105" d="M0 0zM559 479h115l-7 223zM549 0l131 213l-2 10h-224l-4 -8l43 -215h-495l186 229l412 830l-19 211h393l52 -1047l90 -223h-563zM481 1497l240 152l282 -127l254 154l-39 -189l-239 -149l-277 131l-258 -156z" />
<glyph unicode="&#xe4;" horiz-adv-x="1105" d="M0 0zM559 479h115l-7 223zM549 0l131 213l-2 10h-224l-4 -8l43 -215h-495l186 229l412 830l-19 211h393l52 -1047l90 -223h-563zM1143 1461l-76 -64h-161l-46 60l25 112l82 66h154l47 -58zM817 1461l-71 -64h-162l-47 60l24 112l84 66h154l43 -58z" />
<glyph unicode="&#xe5;" horiz-adv-x="1105" d="M0 0zM559 479h115l-7 223zM549 0l131 213l-2 10h-224l-4 -8l43 -215h-495l186 229l412 830l-19 211h393l52 -1047l90 -223h-563zM787 1411h90l28 140h-90zM699 1287l-37 112l32 154l82 114h220l34 -114l-32 -154l-82 -112h-217z" />
<glyph unicode="&#xe6;" horiz-adv-x="1230" d="M621 479l57 269l-150 -269h93zM438 213l27 -131l100 137l-116 4zM-14 0l188 227l590 1043h684l-78 -365l-192 111h-105l-53 -254h18l242 106l-100 -471l-197 111h-18l-54 -254h105l239 111l-75 -365h-1194z" />
<glyph unicode="&#xe7;" horiz-adv-x="923" d="M125 0zM817 1016h-170l-19 -27l-151 -717l6 -18h191l239 108l-76 -362h-653l-59 205l182 858l145 207h635l-78 -367zM686 -252l-231 -215h-178l153 166h-86l-45 43l35 162l78 51h260l49 -45z" />
<glyph unicode="&#xe8;" horiz-adv-x="995" d="M70 0zM1204 1270l-78 -367l-190 113h-203l-49 -234h33l239 109l-100 -473l-194 110h-33l-58 -274h203l238 111l-76 -365h-866l155 219l178 832l-65 219h866zM426 1555l21 59h303l321 -217h-276z" />
<glyph unicode="&#xe9;" horiz-adv-x="995" d="M70 0zM1204 1270l-78 -367l-190 113h-203l-49 -234h33l239 109l-100 -473l-194 110h-33l-58 -274h203l238 111l-76 -365h-866l155 219l178 832l-65 219h866zM809 1397h-276l416 217h303l-2 -59z" />
<glyph unicode="&#xea;" horiz-adv-x="1021" d="M59 0zM1194 1270l-78 -367l-190 113h-203l-49 -234h33l239 109l-100 -473l-194 110h-33l-58 -274h203l238 111l-76 -365h-866l155 219l178 832l-65 219h866zM817 1471l-127 -105h-344l385 240h235l324 -240h-387z" />
<glyph unicode="&#xeb;" horiz-adv-x="995" d="M70 0zM1204 1270l-78 -367l-190 113h-203l-49 -234h33l239 109l-100 -473l-194 110h-33l-58 -274h203l238 111l-76 -365h-866l155 219l178 832l-65 219h866zM1124 1461l-76 -64h-161l-46 60l25 112l82 66h154l47 -58zM798 1461l-71 -64h-162l-47 60l24 112l84 66h154 l43 -58z" />
<glyph unicode="&#xec;" horiz-adv-x="718" d="M123 0zM940 1270l-156 -219l-178 -830l62 -221h-545l151 219l179 832l-62 219h549zM358 1555l21 59h303l321 -217h-276z" />
<glyph unicode="&#xed;" horiz-adv-x="684" d="M109 0zM926 1270l-156 -219l-178 -830l62 -221h-545l151 219l179 832l-62 219h549zM720 1397h-276l416 217h303l-2 -59z" />
<glyph unicode="&#xee;" horiz-adv-x="849" d="M154 0zM971 1270l-156 -219l-178 -830l62 -221h-545l151 219l179 832l-62 219h549zM725 1471l-127 -105h-344l385 240h235l324 -240h-387z" />
<glyph unicode="&#xef;" horiz-adv-x="624" d="M43 0zM860 1270l-156 -219l-178 -830l62 -221h-545l151 219l179 832l-62 219h549zM940 1461l-76 -64h-161l-46 60l25 112l82 66h154l47 -58zM614 1461l-71 -64h-162l-47 60l24 112l84 66h154l43 -58z" />
<glyph unicode="&#xf0;" horiz-adv-x="1130" d="M238 770h94l61 281l-65 219h882l62 -205l-182 -860l-148 -205h-883l156 217l72 336h-94zM670 770h149l-45 -217h-149l-64 -299h189l16 18l152 713l-11 31h-188l2 -8z" />
<glyph unicode="&#xf1;" horiz-adv-x="1204" d="M76 0zM1409 1270l-155 -219l-224 -1051h-254l-204 555l-72 -336l63 -219h-487l156 219l178 832l-66 219h363l200 -574l76 355l-67 219h493zM512 1497l240 152l282 -127l254 154l-39 -189l-239 -149l-277 131l-258 -156z" />
<glyph unicode="&#xf2;" horiz-adv-x="1044" d="M127 0zM485 254h180l15 20l151 709l-8 33h-172l-18 -27l-152 -715zM188 0l-61 205l182 858l145 207h672l60 -205l-183 -860l-145 -205h-670zM440 1555l21 59h303l321 -217h-276z" />
<glyph unicode="&#xf3;" horiz-adv-x="1044" d="M127 0zM485 254h180l15 20l151 709l-8 33h-172l-18 -27l-152 -715zM188 0l-61 205l182 858l145 207h672l60 -205l-183 -860l-145 -205h-670zM837 1397h-276l416 217h303l-2 -59z" />
<glyph unicode="&#xf4;" horiz-adv-x="1079" d="M141 0zM500 254h180l15 20l151 709l-8 33h-172l-18 -27l-152 -715zM203 0l-61 205l182 858l145 207h672l60 -205l-183 -860l-145 -205h-670zM822 1471l-127 -105h-344l385 240h235l324 -240h-387z" />
<glyph unicode="&#xf5;" horiz-adv-x="1044" d="M127 0zM485 254h180l15 20l151 709l-8 33h-172l-18 -27l-152 -715zM188 0l-61 205l182 858l145 207h672l60 -205l-183 -860l-145 -205h-670zM463 1497l240 152l282 -127l254 154l-39 -189l-239 -149l-277 131l-258 -156z" />
<glyph unicode="&#xf6;" horiz-adv-x="1044" d="M127 0zM485 254h180l15 20l151 709l-8 33h-172l-18 -27l-152 -715zM188 0l-61 205l182 858l145 207h672l60 -205l-183 -860l-145 -205h-670zM1137 1461l-76 -64h-161l-46 60l25 112l82 66h154l47 -58zM811 1461l-71 -64h-162l-47 60l24 112l84 66h154l43 -58z" />
<glyph unicode="&#xf7;" horiz-adv-x="921" d="M834 1008l-74 -60h-268l-48 58l52 241l84 66h260l47 -60zM688 319l-76 -61h-268l-47 59l51 240l84 66h260l47 -58zM283 926h747l-61 -281h-748z" />
<glyph unicode="&#xf8;" horiz-adv-x="1042" d="M184 4l-57 201l182 858l146 207h473l100 166h189l-97 -166l64 -205l-183 -860l-145 -205h-475l-92 -156h-199zM678 274l80 375l-232 -395h138zM555 635l225 381h-129l-20 -27z" />
<glyph unicode="&#xf9;" horiz-adv-x="1169" d="M213 0zM571 254h178l14 20l166 777l-59 200l-139 -200l-166 -779zM1374 1270l-156 -217l-180 -848l-146 -205h-620l-59 205l180 846l-66 219h1047zM524 1555l21 59h303l321 -217h-276z" />
<glyph unicode="&#xfa;" horiz-adv-x="1161" d="M213 0zM571 254h178l14 20l166 777l-59 200l-139 -200l-166 -779zM1374 1270l-156 -217l-180 -848l-146 -205h-620l-59 205l180 846l-66 219h1047zM862 1397h-276l416 217h303l-2 -59z" />
<glyph unicode="&#xfb;" horiz-adv-x="1165" d="M213 0zM571 254h178l14 20l166 777l-59 200l-139 -200l-166 -779zM1374 1270l-156 -217l-180 -848l-146 -205h-620l-59 205l180 846l-66 219h1047zM885 1471l-127 -105h-344l385 240h235l324 -240h-387z" />
<glyph unicode="&#xfc;" horiz-adv-x="1169" d="M213 0zM571 254h178l14 20l166 777l-59 200l-139 -200l-166 -779zM1374 1270l-156 -217l-180 -848l-146 -205h-620l-59 205l180 846l-66 219h1047zM1223 1461l-76 -64h-161l-46 60l25 112l82 66h154l47 -58zM897 1461l-71 -64h-162l-47 60l24 112l84 66h154l43 -58z" />
<glyph unicode="&#xfd;" horiz-adv-x="1169" d="M307 0zM874 1270l-86 -209l23 -105l69 105l7 209h516l-240 -232l-270 -395l-90 -424l63 -219h-555l154 219l90 422l-109 395l-139 234h567zM870 1397h-276l416 217h303l-2 -59z" />
<glyph unicode="&#xfe;" horiz-adv-x="901" d="M588 494h67l45 213l-6 12h-59zM537 258l-9 -39l60 -219h-549l151 219l179 832l-62 219h553l-153 -219l-21 -97h275l49 -178l-72 -342l-123 -176h-278z" />
<glyph unicode="&#xff;" horiz-adv-x="1169" d="M307 0zM874 1270l-86 -209l23 -105l69 105l7 209h516l-240 -232l-270 -395l-90 -424l63 -219h-555l154 219l90 422l-109 395l-139 234h567zM1139 1461l-76 -64h-161l-46 60l25 112l82 66h154l47 -58zM813 1461l-71 -64h-162l-47 60l24 112l84 66h154l43 -58z" />
<glyph unicode="&#x152;" horiz-adv-x="1591" d="M543 324l12 -45h170l31 45l194 917l-12 51h-164l-37 -51zM1868 1571l-88 -408l-226 129h-211l7 -20l-72 -346h70l280 127l-115 -535l-227 127h-69l-74 -350l-15 -16h209l283 129l-86 -408h-1327l-74 238l234 1093l174 240h1327z" />
<glyph unicode="&#x153;" horiz-adv-x="1259" d="M467 254h113l16 18l152 719l-11 25h-104l-19 -25l-151 -717zM1503 1270l-78 -365l-194 111h-135l-54 -254h35l240 106l-100 -471l-195 111h-35l-53 -254h135l242 111l-76 -365h-1065l-61 205l182 858l145 207h1067z" />
<glyph unicode="&#x178;" horiz-adv-x="1374" d="M369 0zM1018 1571l-103 -244l39 -201l129 201v244h586l-272 -262l-342 -506l-117 -549l72 -254h-641l180 254l117 547l-140 504l-157 266h649zM1360 1776l-76 -64h-161l-46 60l25 112l82 66h154l47 -58zM1034 1776l-71 -64h-162l-47 60l24 112l84 66h154l43 -58z" />
<glyph unicode="&#x2c6;" horiz-adv-x="1148" d="M928 1786l-127 -105h-344l385 240h235l324 -240h-387z" />
<glyph unicode="&#x2da;" horiz-adv-x="428" d="M539 1726h90l28 140h-90zM451 1602l-37 112l32 154l82 114h220l34 -114l-32 -154l-82 -112h-217z" />
<glyph unicode="&#x2dc;" horiz-adv-x="829" d="M422 1812l240 152l282 -127l254 154l-39 -189l-239 -149l-277 131l-258 -156z" />
<glyph unicode="&#x2000;" horiz-adv-x="995" />
<glyph unicode="&#x2001;" horiz-adv-x="1991" />
<glyph unicode="&#x2002;" horiz-adv-x="995" />
<glyph unicode="&#x2003;" horiz-adv-x="1991" />
<glyph unicode="&#x2004;" horiz-adv-x="663" />
<glyph unicode="&#x2005;" horiz-adv-x="497" />
<glyph unicode="&#x2006;" horiz-adv-x="331" />
<glyph unicode="&#x2007;" horiz-adv-x="331" />
<glyph unicode="&#x2008;" horiz-adv-x="248" />
<glyph unicode="&#x2009;" horiz-adv-x="398" />
<glyph unicode="&#x200a;" horiz-adv-x="110" />
<glyph unicode="&#x2010;" horiz-adv-x="921" d="M283 926h747l-61 -281h-748z" />
<glyph unicode="&#x2011;" horiz-adv-x="921" d="M283 926h747l-61 -281h-748z" />
<glyph unicode="&#x2012;" horiz-adv-x="921" d="M283 926h747l-61 -281h-748z" />
<glyph unicode="&#x2013;" horiz-adv-x="1134" d="M283 926h958l-61 -281h-959z" />
<glyph unicode="&#x2014;" horiz-adv-x="1507" d="M283 926h1355l-61 -281h-1356z" />
<glyph unicode="&#x2018;" horiz-adv-x="454" d="M336 1401l244 278h182l-168 -215h84l45 -59l-43 -209l-82 -68h-262l-45 58z" />
<glyph unicode="&#x2019;" horiz-adv-x="460" d="M698 1300l-245 -280h-181l168 217h-84l-47 57l45 211l86 66h260l45 -58z" />
<glyph unicode="&#x201a;" horiz-adv-x="501" d="M469 94l-244 -280h-182l166 215h-84l-45 57l47 213l82 68h260l45 -60z" />
<glyph unicode="&#x201c;" horiz-adv-x="876" d="M330 1401l248 278h180l-170 -215h86l45 -59l-43 -209l-82 -68h-262l-47 58zM741 1401l244 278h182l-170 -215h84l47 -59l-43 -209l-81 -68h-263l-45 58z" />
<glyph unicode="&#x201d;" horiz-adv-x="858" d="M1104 1300l-246 -280h-180l168 217h-84l-47 57l45 211l86 66h258l47 -58zM694 1300l-245 -280h-181l170 217h-86l-47 57l45 211l84 66h262l45 -58z" />
<glyph unicode="&#x201e;" horiz-adv-x="948" d="M879 94l-246 -280h-180l165 215h-86l-45 57l48 213l83 68h261l45 -60zM469 94l-244 -280h-182l166 215h-84l-45 57l47 213l82 68h260l45 -60z" />
<glyph unicode="&#x2022;" horiz-adv-x="833" d="M895 555l-125 -109h-516l-82 103l98 459l146 116h497l82 -102z" />
<glyph unicode="&#x2026;" horiz-adv-x="2697" d="M215 0zM608 61l-73 -61h-271l-49 57l53 242l84 68h263l45 -60zM1568 61l-73 -61h-271l-49 57l53 242l84 68h263l45 -60zM2529 61l-73 -61h-271l-49 57l53 242l84 68h263l45 -60z" />
<glyph unicode="&#x202f;" horiz-adv-x="398" />
<glyph unicode="&#x2039;" horiz-adv-x="550" d="M393 791l236 -177l-54 -254l-405 299l53 252l533 299l-54 -252z" />
<glyph unicode="&#x203a;" horiz-adv-x="550" d="M158 612l307 166l-234 178l54 254l405 -299l-53 -252l-533 -299z" />
<glyph unicode="&#x205f;" horiz-adv-x="497" />
<glyph unicode="&#x20ac;" horiz-adv-x="1087" d="M203 1049h92l61 282l174 240h781l-88 -408l-226 129h-233l-37 -51l-41 -192h332l-47 -222h-332l-18 -90h331l-47 -219h-332l-41 -194l13 -45h260l285 127l-86 -406h-807l-74 238l59 280h-92l47 219h92l19 90h-92z" />
<glyph unicode="&#x2122;" horiz-adv-x="1527" d="M1319 1303l156 319h307l-105 -135l-118 -557l45 -137h-324l98 141l41 192l-157 -333h-158l-8 350l-45 -213l36 -137h-317l98 137l119 557l-41 131l-57 -279l-86 121h-60l-112 -530l39 -137h-361l101 137l112 530h-57l-135 -121l59 283h916z" />
<glyph unicode="&#x25fc;" horiz-adv-x="1269" d="M0 1270h1270v-1270h-1270v1270z" />
<glyph horiz-adv-x="0" d="M0 0z" />
</font>
</defs>
</svg>
